<svg xmlns="http://www.w3.org/2000/svg" width="100000" height="100000">
<rect x="95.000000" y="0.000000" width="770.000000" height="30.000000" fill="blue" stroke="grey" stroke-width="2" style="opacity:0.7"/>
<rect x="95.000000" y="35.000000" width="770.000000" height="30.000000" fill="blue" stroke="grey" stroke-width="2" style="opacity:0.7"/>
<rect x="95.000000" y="30.000000" width="770.000000" height="5.000000" fill="blue" stroke="green" stroke-width="2" style="opacity:0.7"/>
<rect x="95.000000" y="580.000000" width="770.000000" height="30.000000" fill="blue" stroke="grey" stroke-width="2" style="opacity:0.7"/>
<rect x="95.000000" y="615.000000" width="770.000000" height="30.000000" fill="blue" stroke="grey" stroke-width="2" style="opacity:0.7"/>
<rect x="95.000000" y="610.000000" width="770.000000" height="5.000000" fill="blue" stroke="green" stroke-width="2" style="opacity:0.7"/>
<rect x="0.000000" y="95.000000" width="30.000000" height="475.000000" fill="blue" stroke="grey" stroke-width="2" style="opacity:0.7"/>
<rect x="35.000000" y="95.000000" width="30.000000" height="475.000000" fill="blue" stroke="grey" stroke-width="2" style="opacity:0.7"/>
<rect x="30.000000" y="95.000000" width="5.000000" height="475.000000" fill="blue" stroke="green" stroke-width="2" style="opacity:0.7"/>
<rect x="0.000000" y="580.000000" width="95.000000" height="95.000000" fill="blue" stroke="yellow" stroke-width="2" style="opacity:0.7"/>
<circle cx="47.500000" cy="47.500000" r="47.500000" fill="yellow" stroke="yellow" stroke-width="2" style="opacity:0.7"/>
<circle cx="47.500000" cy="47.500000" r="23.750000" fill="yellow" stroke="orange" stroke-width="2" style="opacity:0.7"/>
<circle cx="912.500000" cy="47.500000" r="47.500000" fill="yellow" stroke="yellow" stroke-width="2" style="opacity:0.7"/>
<circle cx="912.500000" cy="47.500000" r="23.750000" fill="yellow" stroke="orange" stroke-width="2" style="opacity:0.7"/>
<circle cx="912.500000" cy="617.500000" r="47.500000" fill="yellow" stroke="yellow" stroke-width="2" style="opacity:0.7"/>
<circle cx="912.500000" cy="617.500000" r="23.750000" fill="yellow" stroke="orange" stroke-width="2" style="opacity:0.7"/>
<circle cx="0.000000" cy="735.000000" r="2.500000" fill="darkorange" stroke="black" stroke-width="2" style="opacity:0.7"/>
<circle cx="6.500000" cy="735.000000" r="2.500000" fill="darkorange" stroke="black" stroke-width="2" style="opacity:0.7"/>
<circle cx="13.000000" cy="735.000000" r="2.500000" fill="darkorange" stroke="black" stroke-width="2" style="opacity:0.7"/>
<circle cx="19.500000" cy="735.000000" r="2.500000" fill="darkorange" stroke="black" stroke-width="2" style="opacity:0.7"/>
<circle cx="26.000000" cy="735.000000" r="2.500000" fill="darkorange" stroke="black" stroke-width="2" style="opacity:0.7"/>
<circle cx="32.500000" cy="735.000000" r="2.500000" fill="darkorange" stroke="black" stroke-width="2" style="opacity:0.7"/>
<circle cx="39.000000" cy="735.000000" r="2.500000" fill="darkorange" stroke="black" stroke-width="2" style="opacity:0.7"/>
<circle cx="45.500000" cy="735.000000" r="2.500000" fill="darkorange" stroke="black" stroke-width="2" style="opacity:0.7"/>
<circle cx="0.000000" cy="741.500000" r="2.500000" fill="darkorange" stroke="black" stroke-width="2" style="opacity:0.7"/>
<circle cx="45.500000" cy="741.500000" r="2.500000" fill="darkorange" stroke="black" stroke-width="2" style="opacity:0.7"/>
<circle cx="0.000000" cy="748.000000" r="2.500000" fill="darkorange" stroke="black" stroke-width="2" style="opacity:0.7"/>
<circle cx="0.000000" cy="754.500000" r="2.500000" fill="darkorange" stroke="black" stroke-width="2" style="opacity:0.7"/>
<circle cx="6.500000" cy="754.500000" r="2.500000" fill="darkorange" stroke="black" stroke-width="2" style="opacity:0.7"/>
<circle cx="13.000000" cy="754.500000" r="2.500000" fill="darkorange" stroke="black" stroke-width="2" style="opacity:0.7"/>
<circle cx="19.500000" cy="754.500000" r="2.500000" fill="darkorange" stroke="black" stroke-width="2" style="opacity:0.7"/>
<circle cx="0.000000" cy="761.000000" r="2.500000" fill="darkorange" stroke="black" stroke-width="2" style="opacity:0.7"/>
<circle cx="6.500000" cy="761.000000" r="2.500000" fill="darkorange" stroke="black" stroke-width="2" style="opacity:0.7"/>
<circle cx="13.000000" cy="761.000000" r="2.500000" fill="darkorange" stroke="black" stroke-width="2" style="opacity:0.7"/>
<circle cx="19.500000" cy="761.000000" r="2.500000" fill="darkorange" stroke="black" stroke-width="2" style="opacity:0.7"/>
<circle cx="0.000000" cy="767.500000" r="2.500000" fill="darkorange" stroke="black" stroke-width="2" style="opacity:0.7"/>
<circle cx="0.000000" cy="774.000000" r="2.500000" fill="darkorange" stroke="black" stroke-width="2" style="opacity:0.7"/>
<circle cx="45.500000" cy="774.000000" r="2.500000" fill="darkorange" stroke="black" stroke-width="2" style="opacity:0.7"/>
<circle cx="0.000000" cy="780.500000" r="2.500000" fill="darkorange" stroke="black" stroke-width="2" style="opacity:0.7"/>
<circle cx="6.500000" cy="780.500000" r="2.500000" fill="darkorange" stroke="black" stroke-width="2" style="opacity:0.7"/>
<circle cx="13.000000" cy="780.500000" r="2.500000" fill="darkorange" stroke="black" stroke-width="2" style="opacity:0.7"/>
<circle cx="19.500000" cy="780.500000" r="2.500000" fill="darkorange" stroke="black" stroke-width="2" style="opacity:0.7"/>
<circle cx="26.000000" cy="780.500000" r="2.500000" fill="darkorange" stroke="black" stroke-width="2" style="opacity:0.7"/>
<circle cx="32.500000" cy="780.500000" r="2.500000" fill="darkorange" stroke="black" stroke-width="2" style="opacity:0.7"/>
<circle cx="39.000000" cy="780.500000" r="2.500000" fill="darkorange" stroke="black" stroke-width="2" style="opacity:0.7"/>
<circle cx="45.500000" cy="780.500000" r="2.500000" fill="darkorange" stroke="black" stroke-width="2" style="opacity:0.7"/>
<circle cx="41.500000" cy="735.000000" r="2.500000" fill="darkorange" stroke="black" stroke-width="2" style="opacity:0.7"/>
<circle cx="48.000000" cy="735.000000" r="2.500000" fill="darkorange" stroke="black" stroke-width="2" style="opacity:0.7"/>
<circle cx="54.500000" cy="735.000000" r="2.500000" fill="darkorange" stroke="black" stroke-width="2" style="opacity:0.7"/>
<circle cx="61.000000" cy="735.000000" r="2.500000" fill="darkorange" stroke="black" stroke-width="2" style="opacity:0.7"/>
<circle cx="67.500000" cy="735.000000" r="2.500000" fill="darkorange" stroke="black" stroke-width="2" style="opacity:0.7"/>
<circle cx="74.000000" cy="735.000000" r="2.500000" fill="darkorange" stroke="black" stroke-width="2" style="opacity:0.7"/>
<circle cx="80.500000" cy="735.000000" r="2.500000" fill="darkorange" stroke="black" stroke-width="2" style="opacity:0.7"/>
<circle cx="48.000000" cy="741.500000" r="2.500000" fill="darkorange" stroke="black" stroke-width="2" style="opacity:0.7"/>
<circle cx="87.000000" cy="741.500000" r="2.500000" fill="darkorange" stroke="black" stroke-width="2" style="opacity:0.7"/>
<circle cx="48.000000" cy="748.000000" r="2.500000" fill="darkorange" stroke="black" stroke-width="2" style="opacity:0.7"/>
<circle cx="87.000000" cy="748.000000" r="2.500000" fill="darkorange" stroke="black" stroke-width="2" style="opacity:0.7"/>
<circle cx="48.000000" cy="754.500000" r="2.500000" fill="darkorange" stroke="black" stroke-width="2" style="opacity:0.7"/>
<circle cx="87.000000" cy="754.500000" r="2.500000" fill="darkorange" stroke="black" stroke-width="2" style="opacity:0.7"/>
<circle cx="48.000000" cy="761.000000" r="2.500000" fill="darkorange" stroke="black" stroke-width="2" style="opacity:0.7"/>
<circle cx="87.000000" cy="761.000000" r="2.500000" fill="darkorange" stroke="black" stroke-width="2" style="opacity:0.7"/>
<circle cx="48.000000" cy="767.500000" r="2.500000" fill="darkorange" stroke="black" stroke-width="2" style="opacity:0.7"/>
<circle cx="87.000000" cy="767.500000" r="2.500000" fill="darkorange" stroke="black" stroke-width="2" style="opacity:0.7"/>
<circle cx="48.000000" cy="774.000000" r="2.500000" fill="darkorange" stroke="black" stroke-width="2" style="opacity:0.7"/>
<circle cx="87.000000" cy="774.000000" r="2.500000" fill="darkorange" stroke="black" stroke-width="2" style="opacity:0.7"/>
<circle cx="41.500000" cy="780.500000" r="2.500000" fill="darkorange" stroke="black" stroke-width="2" style="opacity:0.7"/>
<circle cx="48.000000" cy="780.500000" r="2.500000" fill="darkorange" stroke="black" stroke-width="2" style="opacity:0.7"/>
<circle cx="54.500000" cy="780.500000" r="2.500000" fill="darkorange" stroke="black" stroke-width="2" style="opacity:0.7"/>
<circle cx="61.000000" cy="780.500000" r="2.500000" fill="darkorange" stroke="black" stroke-width="2" style="opacity:0.7"/>
<circle cx="67.500000" cy="780.500000" r="2.500000" fill="darkorange" stroke="black" stroke-width="2" style="opacity:0.7"/>
<circle cx="74.000000" cy="780.500000" r="2.500000" fill="darkorange" stroke="black" stroke-width="2" style="opacity:0.7"/>
<circle cx="80.500000" cy="780.500000" r="2.500000" fill="darkorange" stroke="black" stroke-width="2" style="opacity:0.7"/>
<circle cx="124.500000" cy="735.000000" r="2.500000" fill="darkorange" stroke="black" stroke-width="2" style="opacity:0.7"/>
<circle cx="170.000000" cy="735.000000" r="2.500000" fill="darkorange" stroke="black" stroke-width="2" style="opacity:0.7"/>
<circle cx="131.000000" cy="741.500000" r="2.500000" fill="darkorange" stroke="black" stroke-width="2" style="opacity:0.7"/>
<circle cx="163.500000" cy="741.500000" r="2.500000" fill="darkorange" stroke="black" stroke-width="2" style="opacity:0.7"/>
<circle cx="137.500000" cy="748.000000" r="2.500000" fill="darkorange" stroke="black" stroke-width="2" style="opacity:0.7"/>
<circle cx="157.000000" cy="748.000000" r="2.500000" fill="darkorange" stroke="black" stroke-width="2" style="opacity:0.7"/>
<circle cx="144.000000" cy="754.500000" r="2.500000" fill="darkorange" stroke="black" stroke-width="2" style="opacity:0.7"/>
<circle cx="150.500000" cy="754.500000" r="2.500000" fill="darkorange" stroke="black" stroke-width="2" style="opacity:0.7"/>
<circle cx="144.000000" cy="761.000000" r="2.500000" fill="darkorange" stroke="black" stroke-width="2" style="opacity:0.7"/>
<circle cx="150.500000" cy="761.000000" r="2.500000" fill="darkorange" stroke="black" stroke-width="2" style="opacity:0.7"/>
<circle cx="137.500000" cy="767.500000" r="2.500000" fill="darkorange" stroke="black" stroke-width="2" style="opacity:0.7"/>
<circle cx="157.000000" cy="767.500000" r="2.500000" fill="darkorange" stroke="black" stroke-width="2" style="opacity:0.7"/>
<circle cx="131.000000" cy="774.000000" r="2.500000" fill="darkorange" stroke="black" stroke-width="2" style="opacity:0.7"/>
<circle cx="163.500000" cy="774.000000" r="2.500000" fill="darkorange" stroke="black" stroke-width="2" style="opacity:0.7"/>
<circle cx="124.500000" cy="780.500000" r="2.500000" fill="darkorange" stroke="black" stroke-width="2" style="opacity:0.7"/>
<circle cx="170.000000" cy="780.500000" r="2.500000" fill="darkorange" stroke="black" stroke-width="2" style="opacity:0.7"/>
<circle cx="166.000000" cy="735.000000" r="2.500000" fill="darkorange" stroke="black" stroke-width="2" style="opacity:0.7"/>
<circle cx="211.500000" cy="735.000000" r="2.500000" fill="darkorange" stroke="black" stroke-width="2" style="opacity:0.7"/>
<circle cx="166.000000" cy="741.500000" r="2.500000" fill="darkorange" stroke="black" stroke-width="2" style="opacity:0.7"/>
<circle cx="211.500000" cy="741.500000" r="2.500000" fill="darkorange" stroke="black" stroke-width="2" style="opacity:0.7"/>
<circle cx="172.500000" cy="748.000000" r="2.500000" fill="darkorange" stroke="black" stroke-width="2" style="opacity:0.7"/>
<circle cx="205.000000" cy="748.000000" r="2.500000" fill="darkorange" stroke="black" stroke-width="2" style="opacity:0.7"/>
<circle cx="172.500000" cy="754.500000" r="2.500000" fill="darkorange" stroke="black" stroke-width="2" style="opacity:0.7"/>
<circle cx="205.000000" cy="754.500000" r="2.500000" fill="darkorange" stroke="black" stroke-width="2" style="opacity:0.7"/>
<circle cx="179.000000" cy="761.000000" r="2.500000" fill="darkorange" stroke="black" stroke-width="2" style="opacity:0.7"/>
<circle cx="198.500000" cy="761.000000" r="2.500000" fill="darkorange" stroke="black" stroke-width="2" style="opacity:0.7"/>
<circle cx="179.000000" cy="767.500000" r="2.500000" fill="darkorange" stroke="black" stroke-width="2" style="opacity:0.7"/>
<circle cx="198.500000" cy="767.500000" r="2.500000" fill="darkorange" stroke="black" stroke-width="2" style="opacity:0.7"/>
<circle cx="185.500000" cy="774.000000" r="2.500000" fill="darkorange" stroke="black" stroke-width="2" style="opacity:0.7"/>
<circle cx="192.000000" cy="774.000000" r="2.500000" fill="darkorange" stroke="black" stroke-width="2" style="opacity:0.7"/>
<circle cx="185.500000" cy="780.500000" r="2.500000" fill="darkorange" stroke="black" stroke-width="2" style="opacity:0.7"/>
<circle cx="192.000000" cy="780.500000" r="2.500000" fill="darkorange" stroke="black" stroke-width="2" style="opacity:0.7"/>
<circle cx="207.500000" cy="735.000000" r="2.500000" fill="darkorange" stroke="black" stroke-width="2" style="opacity:0.7"/>
<circle cx="214.000000" cy="735.000000" r="2.500000" fill="darkorange" stroke="black" stroke-width="2" style="opacity:0.7"/>
<circle cx="220.500000" cy="735.000000" r="2.500000" fill="darkorange" stroke="black" stroke-width="2" style="opacity:0.7"/>
<circle cx="227.000000" cy="735.000000" r="2.500000" fill="darkorange" stroke="black" stroke-width="2" style="opacity:0.7"/>
<circle cx="233.500000" cy="735.000000" r="2.500000" fill="darkorange" stroke="black" stroke-width="2" style="opacity:0.7"/>
<circle cx="240.000000" cy="735.000000" r="2.500000" fill="darkorange" stroke="black" stroke-width="2" style="opacity:0.7"/>
<circle cx="246.500000" cy="735.000000" r="2.500000" fill="darkorange" stroke="black" stroke-width="2" style="opacity:0.7"/>
<circle cx="253.000000" cy="735.000000" r="2.500000" fill="darkorange" stroke="black" stroke-width="2" style="opacity:0.7"/>
<circle cx="207.500000" cy="741.500000" r="2.500000" fill="darkorange" stroke="black" stroke-width="2" style="opacity:0.7"/>
<circle cx="227.000000" cy="741.500000" r="2.500000" fill="darkorange" stroke="black" stroke-width="2" style="opacity:0.7"/>
<circle cx="233.500000" cy="741.500000" r="2.500000" fill="darkorange" stroke="black" stroke-width="2" style="opacity:0.7"/>
<circle cx="253.000000" cy="741.500000" r="2.500000" fill="darkorange" stroke="black" stroke-width="2" style="opacity:0.7"/>
<circle cx="227.000000" cy="748.000000" r="2.500000" fill="darkorange" stroke="black" stroke-width="2" style="opacity:0.7"/>
<circle cx="233.500000" cy="748.000000" r="2.500000" fill="darkorange" stroke="black" stroke-width="2" style="opacity:0.7"/>
<circle cx="227.000000" cy="754.500000" r="2.500000" fill="darkorange" stroke="black" stroke-width="2" style="opacity:0.7"/>
<circle cx="233.500000" cy="754.500000" r="2.500000" fill="darkorange" stroke="black" stroke-width="2" style="opacity:0.7"/>
<circle cx="227.000000" cy="761.000000" r="2.500000" fill="darkorange" stroke="black" stroke-width="2" style="opacity:0.7"/>
<circle cx="233.500000" cy="761.000000" r="2.500000" fill="darkorange" stroke="black" stroke-width="2" style="opacity:0.7"/>
<circle cx="227.000000" cy="767.500000" r="2.500000" fill="darkorange" stroke="black" stroke-width="2" style="opacity:0.7"/>
<circle cx="233.500000" cy="767.500000" r="2.500000" fill="darkorange" stroke="black" stroke-width="2" style="opacity:0.7"/>
<circle cx="207.500000" cy="774.000000" r="2.500000" fill="darkorange" stroke="black" stroke-width="2" style="opacity:0.7"/>
<circle cx="227.000000" cy="774.000000" r="2.500000" fill="darkorange" stroke="black" stroke-width="2" style="opacity:0.7"/>
<circle cx="233.500000" cy="774.000000" r="2.500000" fill="darkorange" stroke="black" stroke-width="2" style="opacity:0.7"/>
<circle cx="253.000000" cy="774.000000" r="2.500000" fill="darkorange" stroke="black" stroke-width="2" style="opacity:0.7"/>
<circle cx="207.500000" cy="780.500000" r="2.500000" fill="darkorange" stroke="black" stroke-width="2" style="opacity:0.7"/>
<circle cx="214.000000" cy="780.500000" r="2.500000" fill="darkorange" stroke="black" stroke-width="2" style="opacity:0.7"/>
<circle cx="220.500000" cy="780.500000" r="2.500000" fill="darkorange" stroke="black" stroke-width="2" style="opacity:0.7"/>
<circle cx="227.000000" cy="780.500000" r="2.500000" fill="darkorange" stroke="black" stroke-width="2" style="opacity:0.7"/>
<circle cx="233.500000" cy="780.500000" r="2.500000" fill="darkorange" stroke="black" stroke-width="2" style="opacity:0.7"/>
<circle cx="240.000000" cy="780.500000" r="2.500000" fill="darkorange" stroke="black" stroke-width="2" style="opacity:0.7"/>
<circle cx="246.500000" cy="780.500000" r="2.500000" fill="darkorange" stroke="black" stroke-width="2" style="opacity:0.7"/>
<circle cx="253.000000" cy="780.500000" r="2.500000" fill="darkorange" stroke="black" stroke-width="2" style="opacity:0.7"/>
<circle cx="249.000000" cy="735.000000" r="2.500000" fill="darkorange" stroke="black" stroke-width="2" style="opacity:0.7"/>
<circle cx="255.500000" cy="735.000000" r="2.500000" fill="darkorange" stroke="black" stroke-width="2" style="opacity:0.7"/>
<circle cx="262.000000" cy="735.000000" r="2.500000" fill="darkorange" stroke="black" stroke-width="2" style="opacity:0.7"/>
<circle cx="268.500000" cy="735.000000" r="2.500000" fill="darkorange" stroke="black" stroke-width="2" style="opacity:0.7"/>
<circle cx="275.000000" cy="735.000000" r="2.500000" fill="darkorange" stroke="black" stroke-width="2" style="opacity:0.7"/>
<circle cx="281.500000" cy="735.000000" r="2.500000" fill="darkorange" stroke="black" stroke-width="2" style="opacity:0.7"/>
<circle cx="288.000000" cy="735.000000" r="2.500000" fill="darkorange" stroke="black" stroke-width="2" style="opacity:0.7"/>
<circle cx="294.500000" cy="735.000000" r="2.500000" fill="darkorange" stroke="black" stroke-width="2" style="opacity:0.7"/>
<circle cx="249.000000" cy="741.500000" r="2.500000" fill="darkorange" stroke="black" stroke-width="2" style="opacity:0.7"/>
<circle cx="268.500000" cy="741.500000" r="2.500000" fill="darkorange" stroke="black" stroke-width="2" style="opacity:0.7"/>
<circle cx="275.000000" cy="741.500000" r="2.500000" fill="darkorange" stroke="black" stroke-width="2" style="opacity:0.7"/>
<circle cx="294.500000" cy="741.500000" r="2.500000" fill="darkorange" stroke="black" stroke-width="2" style="opacity:0.7"/>
<circle cx="268.500000" cy="748.000000" r="2.500000" fill="darkorange" stroke="black" stroke-width="2" style="opacity:0.7"/>
<circle cx="275.000000" cy="748.000000" r="2.500000" fill="darkorange" stroke="black" stroke-width="2" style="opacity:0.7"/>
<circle cx="268.500000" cy="754.500000" r="2.500000" fill="darkorange" stroke="black" stroke-width="2" style="opacity:0.7"/>
<circle cx="275.000000" cy="754.500000" r="2.500000" fill="darkorange" stroke="black" stroke-width="2" style="opacity:0.7"/>
<circle cx="268.500000" cy="761.000000" r="2.500000" fill="darkorange" stroke="black" stroke-width="2" style="opacity:0.7"/>
<circle cx="275.000000" cy="761.000000" r="2.500000" fill="darkorange" stroke="black" stroke-width="2" style="opacity:0.7"/>
<circle cx="268.500000" cy="767.500000" r="2.500000" fill="darkorange" stroke="black" stroke-width="2" style="opacity:0.7"/>
<circle cx="275.000000" cy="767.500000" r="2.500000" fill="darkorange" stroke="black" stroke-width="2" style="opacity:0.7"/>
<circle cx="249.000000" cy="774.000000" r="2.500000" fill="darkorange" stroke="black" stroke-width="2" style="opacity:0.7"/>
<circle cx="268.500000" cy="774.000000" r="2.500000" fill="darkorange" stroke="black" stroke-width="2" style="opacity:0.7"/>
<circle cx="275.000000" cy="774.000000" r="2.500000" fill="darkorange" stroke="black" stroke-width="2" style="opacity:0.7"/>
<circle cx="294.500000" cy="774.000000" r="2.500000" fill="darkorange" stroke="black" stroke-width="2" style="opacity:0.7"/>
<circle cx="249.000000" cy="780.500000" r="2.500000" fill="darkorange" stroke="black" stroke-width="2" style="opacity:0.7"/>
<circle cx="255.500000" cy="780.500000" r="2.500000" fill="darkorange" stroke="black" stroke-width="2" style="opacity:0.7"/>
<circle cx="262.000000" cy="780.500000" r="2.500000" fill="darkorange" stroke="black" stroke-width="2" style="opacity:0.7"/>
<circle cx="268.500000" cy="780.500000" r="2.500000" fill="darkorange" stroke="black" stroke-width="2" style="opacity:0.7"/>
<circle cx="275.000000" cy="780.500000" r="2.500000" fill="darkorange" stroke="black" stroke-width="2" style="opacity:0.7"/>
<circle cx="281.500000" cy="780.500000" r="2.500000" fill="darkorange" stroke="black" stroke-width="2" style="opacity:0.7"/>
<circle cx="288.000000" cy="780.500000" r="2.500000" fill="darkorange" stroke="black" stroke-width="2" style="opacity:0.7"/>
<circle cx="294.500000" cy="780.500000" r="2.500000" fill="darkorange" stroke="black" stroke-width="2" style="opacity:0.7"/>
<circle cx="332.000000" cy="735.000000" r="2.500000" fill="darkorange" stroke="black" stroke-width="2" style="opacity:0.7"/>
<circle cx="338.500000" cy="735.000000" r="2.500000" fill="darkorange" stroke="black" stroke-width="2" style="opacity:0.7"/>
<circle cx="345.000000" cy="735.000000" r="2.500000" fill="darkorange" stroke="black" stroke-width="2" style="opacity:0.7"/>
<circle cx="351.500000" cy="735.000000" r="2.500000" fill="darkorange" stroke="black" stroke-width="2" style="opacity:0.7"/>
<circle cx="358.000000" cy="735.000000" r="2.500000" fill="darkorange" stroke="black" stroke-width="2" style="opacity:0.7"/>
<circle cx="364.500000" cy="735.000000" r="2.500000" fill="darkorange" stroke="black" stroke-width="2" style="opacity:0.7"/>
<circle cx="371.000000" cy="735.000000" r="2.500000" fill="darkorange" stroke="black" stroke-width="2" style="opacity:0.7"/>
<circle cx="377.500000" cy="735.000000" r="2.500000" fill="darkorange" stroke="black" stroke-width="2" style="opacity:0.7"/>
<circle cx="332.000000" cy="741.500000" r="2.500000" fill="darkorange" stroke="black" stroke-width="2" style="opacity:0.7"/>
<circle cx="351.500000" cy="741.500000" r="2.500000" fill="darkorange" stroke="black" stroke-width="2" style="opacity:0.7"/>
<circle cx="358.000000" cy="741.500000" r="2.500000" fill="darkorange" stroke="black" stroke-width="2" style="opacity:0.7"/>
<circle cx="377.500000" cy="741.500000" r="2.500000" fill="darkorange" stroke="black" stroke-width="2" style="opacity:0.7"/>
<circle cx="351.500000" cy="748.000000" r="2.500000" fill="darkorange" stroke="black" stroke-width="2" style="opacity:0.7"/>
<circle cx="358.000000" cy="748.000000" r="2.500000" fill="darkorange" stroke="black" stroke-width="2" style="opacity:0.7"/>
<circle cx="351.500000" cy="754.500000" r="2.500000" fill="darkorange" stroke="black" stroke-width="2" style="opacity:0.7"/>
<circle cx="358.000000" cy="754.500000" r="2.500000" fill="darkorange" stroke="black" stroke-width="2" style="opacity:0.7"/>
<circle cx="351.500000" cy="761.000000" r="2.500000" fill="darkorange" stroke="black" stroke-width="2" style="opacity:0.7"/>
<circle cx="358.000000" cy="761.000000" r="2.500000" fill="darkorange" stroke="black" stroke-width="2" style="opacity:0.7"/>
<circle cx="351.500000" cy="767.500000" r="2.500000" fill="darkorange" stroke="black" stroke-width="2" style="opacity:0.7"/>
<circle cx="358.000000" cy="767.500000" r="2.500000" fill="darkorange" stroke="black" stroke-width="2" style="opacity:0.7"/>
<circle cx="351.500000" cy="774.000000" r="2.500000" fill="darkorange" stroke="black" stroke-width="2" style="opacity:0.7"/>
<circle cx="358.000000" cy="774.000000" r="2.500000" fill="darkorange" stroke="black" stroke-width="2" style="opacity:0.7"/>
<circle cx="351.500000" cy="780.500000" r="2.500000" fill="darkorange" stroke="black" stroke-width="2" style="opacity:0.7"/>
<circle cx="358.000000" cy="780.500000" r="2.500000" fill="darkorange" stroke="black" stroke-width="2" style="opacity:0.7"/>
<circle cx="373.500000" cy="735.000000" r="2.500000" fill="darkorange" stroke="black" stroke-width="2" style="opacity:0.7"/>
<circle cx="419.000000" cy="735.000000" r="2.500000" fill="darkorange" stroke="black" stroke-width="2" style="opacity:0.7"/>
<circle cx="373.500000" cy="741.500000" r="2.500000" fill="darkorange" stroke="black" stroke-width="2" style="opacity:0.7"/>
<circle cx="419.000000" cy="741.500000" r="2.500000" fill="darkorange" stroke="black" stroke-width="2" style="opacity:0.7"/>
<circle cx="380.000000" cy="748.000000" r="2.500000" fill="darkorange" stroke="black" stroke-width="2" style="opacity:0.7"/>
<circle cx="412.500000" cy="748.000000" r="2.500000" fill="darkorange" stroke="black" stroke-width="2" style="opacity:0.7"/>
<circle cx="380.000000" cy="754.500000" r="2.500000" fill="darkorange" stroke="black" stroke-width="2" style="opacity:0.7"/>
<circle cx="412.500000" cy="754.500000" r="2.500000" fill="darkorange" stroke="black" stroke-width="2" style="opacity:0.7"/>
<circle cx="386.500000" cy="761.000000" r="2.500000" fill="darkorange" stroke="black" stroke-width="2" style="opacity:0.7"/>
<circle cx="406.000000" cy="761.000000" r="2.500000" fill="darkorange" stroke="black" stroke-width="2" style="opacity:0.7"/>
<circle cx="386.500000" cy="767.500000" r="2.500000" fill="darkorange" stroke="black" stroke-width="2" style="opacity:0.7"/>
<circle cx="406.000000" cy="767.500000" r="2.500000" fill="darkorange" stroke="black" stroke-width="2" style="opacity:0.7"/>
<circle cx="393.000000" cy="774.000000" r="2.500000" fill="darkorange" stroke="black" stroke-width="2" style="opacity:0.7"/>
<circle cx="399.500000" cy="774.000000" r="2.500000" fill="darkorange" stroke="black" stroke-width="2" style="opacity:0.7"/>
<circle cx="393.000000" cy="780.500000" r="2.500000" fill="darkorange" stroke="black" stroke-width="2" style="opacity:0.7"/>
<circle cx="399.500000" cy="780.500000" r="2.500000" fill="darkorange" stroke="black" stroke-width="2" style="opacity:0.7"/>
<rect x="95.000000" y="95.000000" width="120.000000" height="80.000000" fill="black,escala" stroke="black" stroke-width="2" style="opacity:0.7"/>
<text x="98.000000" y="172.000000" fill="black">b01.1</text>
<rect x="230.000000" y="95.000000" width="120.000000" height="80.000000" fill="black,escala" stroke="black" stroke-width="2" style="opacity:0.7"/>
<text x="233.000000" y="172.000000" fill="black">b01.2</text>
<rect x="95.000000" y="190.000000" width="120.000000" height="80.000000" fill="black,escala" stroke="black" stroke-width="2" style="opacity:0.7"/>
<text x="98.000000" y="267.000000" fill="black">b02.1</text>
<rect x="95.000000" y="285.000000" width="120.000000" height="80.000000" fill="black,escala" stroke="black" stroke-width="2" style="opacity:0.7"/>
<text x="98.000000" y="362.000000" fill="black">b03.1</text>
<rect x="95.000000" y="380.000000" width="120.000000" height="80.000000" fill="black,escala" stroke="black" stroke-width="2" style="opacity:0.7"/>
<text x="98.000000" y="457.000000" fill="black">b04.1</text>
<rect x="95.000000" y="475.000000" width="120.000000" height="80.000000" fill="black,escala" stroke="black" stroke-width="2" style="opacity:0.7"/>
<text x="98.000000" y="552.000000" fill="black">b05.1</text>
<rect x="230.000000" y="190.000000" width="120.000000" height="80.000000" fill="black,escala" stroke="black" stroke-width="2" style="opacity:0.7"/>
<text x="233.000000" y="267.000000" fill="black">b02.2</text>
<rect x="230.000000" y="285.000000" width="120.000000" height="80.000000" fill="black,escala" stroke="black" stroke-width="2" style="opacity:0.7"/>
<text x="233.000000" y="362.000000" fill="black">b03.2</text>
<rect x="230.000000" y="380.000000" width="120.000000" height="80.000000" fill="black,escala" stroke="black" stroke-width="2" style="opacity:0.7"/>
<text x="233.000000" y="457.000000" fill="black">b04.2</text>
<rect x="230.000000" y="475.000000" width="120.000000" height="80.000000" fill="black,escala" stroke="black" stroke-width="2" style="opacity:0.7"/>
<text x="233.000000" y="552.000000" fill="black">b05.2</text>
<rect x="365.000000" y="95.000000" width="120.000000" height="80.000000" fill="black,escala" stroke="black" stroke-width="2" style="opacity:0.7"/>
<text x="368.000000" y="172.000000" fill="black">b01.3</text>
<rect x="500.000000" y="95.000000" width="120.000000" height="80.000000" fill="black,escala" stroke="black" stroke-width="2" style="opacity:0.7"/>
<text x="503.000000" y="172.000000" fill="black">b01.4</text>
<rect x="365.000000" y="190.000000" width="120.000000" height="80.000000" fill="black,escala" stroke="black" stroke-width="2" style="opacity:0.7"/>
<text x="368.000000" y="267.000000" fill="black">b02.3</text>
<rect x="365.000000" y="285.000000" width="120.000000" height="80.000000" fill="black,escala" stroke="black" stroke-width="2" style="opacity:0.7"/>
<text x="368.000000" y="362.000000" fill="black">b03.3</text>
<rect x="365.000000" y="380.000000" width="120.000000" height="80.000000" fill="black,escala" stroke="black" stroke-width="2" style="opacity:0.7"/>
<text x="368.000000" y="457.000000" fill="black">b04.3</text>
<rect x="365.000000" y="475.000000" width="120.000000" height="80.000000" fill="black,escala" stroke="black" stroke-width="2" style="opacity:0.7"/>
<text x="368.000000" y="552.000000" fill="black">b05.3</text>
<rect x="500.000000" y="190.000000" width="120.000000" height="80.000000" fill="black,escala" stroke="black" stroke-width="2" style="opacity:0.7"/>
<text x="503.000000" y="267.000000" fill="black">b02.4</text>
<rect x="500.000000" y="285.000000" width="120.000000" height="80.000000" fill="black,escala" stroke="black" stroke-width="2" style="opacity:0.7"/>
<text x="503.000000" y="362.000000" fill="black">b03.4</text>
<rect x="500.000000" y="380.000000" width="120.000000" height="80.000000" fill="black,escala" stroke="black" stroke-width="2" style="opacity:0.7"/>
<text x="503.000000" y="457.000000" fill="black">b04.4</text>
<rect x="500.000000" y="475.000000" width="120.000000" height="80.000000" fill="black,escala" stroke="black" stroke-width="2" style="opacity:0.7"/>
<text x="503.000000" y="552.000000" fill="black">b05.4</text>
<rect x="635.000000" y="95.000000" width="120.000000" height="80.000000" fill="black,escala" stroke="black" stroke-width="2" style="opacity:0.7"/>
<text x="638.000000" y="172.000000" fill="black">b01.5</text>
<rect x="635.000000" y="190.000000" width="120.000000" height="80.000000" fill="black,escala" stroke="black" stroke-width="2" style="opacity:0.7"/>
<text x="638.000000" y="267.000000" fill="black">b02.5</text>
<rect x="635.000000" y="285.000000" width="120.000000" height="80.000000" fill="black,escala" stroke="black" stroke-width="2" style="opacity:0.7"/>
<text x="638.000000" y="362.000000" fill="black">b03.5</text>
<rect x="635.000000" y="380.000000" width="120.000000" height="80.000000" fill="black,escala" stroke="black" stroke-width="2" style="opacity:0.7"/>
<text x="638.000000" y="457.000000" fill="black">b04.5</text>
<rect x="635.000000" y="475.000000" width="120.000000" height="80.000000" fill="black,escala" stroke="black" stroke-width="2" style="opacity:0.7"/>
<text x="638.000000" y="552.000000" fill="black">b05.5</text>
<circle cx="155.000000" cy="175.000000" r="5.000000" fill="red" stroke="orange" stroke-width="2"/>
<text x="155.000000" y="175.000000" fill="black">H</text>
<circle cx="215.000000" cy="135.000000" r="5.000000" fill="red" stroke="orange" stroke-width="2"/>
<text x="215.000000" y="135.000000" fill="black">H</text>
<circle cx="215.000000" cy="230.000000" r="5.000000" fill="red" stroke="orange" stroke-width="2"/>
<text x="215.000000" y="230.000000" fill="black">H</text>
<circle cx="155.000000" cy="270.000000" r="5.000000" fill="red" stroke="orange" stroke-width="2"/>
<text x="155.000000" y="270.000000" fill="black">H</text>
<circle cx="155.000000" cy="365.000000" r="5.000000" fill="red" stroke="orange" stroke-width="2"/>
<text x="155.000000" y="365.000000" fill="black">H</text>
<circle cx="215.000000" cy="325.000000" r="5.000000" fill="red" stroke="orange" stroke-width="2"/>
<text x="215.000000" y="325.000000" fill="black">H</text>
<circle cx="155.000000" cy="460.000000" r="5.000000" fill="red" stroke="orange" stroke-width="2"/>
<text x="155.000000" y="460.000000" fill="black">H</text>
<circle cx="215.000000" cy="420.000000" r="5.000000" fill="red" stroke="orange" stroke-width="2"/>
<text x="215.000000" y="420.000000" fill="black">H</text>
<circle cx="155.000000" cy="555.000000" r="5.000000" fill="red" stroke="orange" stroke-width="2"/>
<text x="155.000000" y="555.000000" fill="black">H</text>
<circle cx="215.000000" cy="515.000000" r="5.000000" fill="red" stroke="orange" stroke-width="2"/>
<text x="215.000000" y="515.000000" fill="black">H</text>
<circle cx="290.000000" cy="175.000000" r="5.000000" fill="red" stroke="orange" stroke-width="2"/>
<text x="290.000000" y="175.000000" fill="black">H</text>
<circle cx="350.000000" cy="135.000000" r="5.000000" fill="red" stroke="orange" stroke-width="2"/>
<text x="350.000000" y="135.000000" fill="black">H</text>
<circle cx="350.000000" cy="230.000000" r="5.000000" fill="red" stroke="orange" stroke-width="2"/>
<text x="350.000000" y="230.000000" fill="black">H</text>
<circle cx="290.000000" cy="270.000000" r="5.000000" fill="red" stroke="orange" stroke-width="2"/>
<text x="290.000000" y="270.000000" fill="black">H</text>
<circle cx="290.000000" cy="365.000000" r="5.000000" fill="red" stroke="orange" stroke-width="2"/>
<text x="290.000000" y="365.000000" fill="black">H</text>
<circle cx="350.000000" cy="325.000000" r="5.000000" fill="red" stroke="orange" stroke-width="2"/>
<text x="350.000000" y="325.000000" fill="black">H</text>
<circle cx="290.000000" cy="460.000000" r="5.000000" fill="red" stroke="orange" stroke-width="2"/>
<text x="290.000000" y="460.000000" fill="black">H</text>
<circle cx="350.000000" cy="420.000000" r="5.000000" fill="red" stroke="orange" stroke-width="2"/>
<text x="350.000000" y="420.000000" fill="black">H</text>
<circle cx="290.000000" cy="555.000000" r="5.000000" fill="red" stroke="orange" stroke-width="2"/>
<text x="290.000000" y="555.000000" fill="black">H</text>
<circle cx="350.000000" cy="515.000000" r="5.000000" fill="red" stroke="orange" stroke-width="2"/>
<text x="350.000000" y="515.000000" fill="black">H</text>
<circle cx="425.000000" cy="175.000000" r="5.000000" fill="red" stroke="orange" stroke-width="2"/>
<text x="425.000000" y="175.000000" fill="black">H</text>
<circle cx="485.000000" cy="135.000000" r="5.000000" fill="red" stroke="orange" stroke-width="2"/>
<text x="485.000000" y="135.000000" fill="black">H</text>
<circle cx="485.000000" cy="230.000000" r="5.000000" fill="red" stroke="orange" stroke-width="2"/>
<text x="485.000000" y="230.000000" fill="black">H</text>
<circle cx="425.000000" cy="270.000000" r="5.000000" fill="red" stroke="orange" stroke-width="2"/>
<text x="425.000000" y="270.000000" fill="black">H</text>
<circle cx="425.000000" cy="365.000000" r="5.000000" fill="red" stroke="orange" stroke-width="2"/>
<text x="425.000000" y="365.000000" fill="black">H</text>
<circle cx="485.000000" cy="325.000000" r="5.000000" fill="red" stroke="orange" stroke-width="2"/>
<text x="485.000000" y="325.000000" fill="black">H</text>
<circle cx="425.000000" cy="460.000000" r="5.000000" fill="red" stroke="orange" stroke-width="2"/>
<text x="425.000000" y="460.000000" fill="black">H</text>
<circle cx="485.000000" cy="420.000000" r="5.000000" fill="red" stroke="orange" stroke-width="2"/>
<text x="485.000000" y="420.000000" fill="black">H</text>
<circle cx="425.000000" cy="555.000000" r="5.000000" fill="red" stroke="orange" stroke-width="2"/>
<text x="425.000000" y="555.000000" fill="black">H</text>
<circle cx="485.000000" cy="515.000000" r="5.000000" fill="red" stroke="orange" stroke-width="2"/>
<text x="485.000000" y="515.000000" fill="black">H</text>
<circle cx="560.000000" cy="175.000000" r="5.000000" fill="red" stroke="orange" stroke-width="2"/>
<text x="560.000000" y="175.000000" fill="black">H</text>
<circle cx="620.000000" cy="135.000000" r="5.000000" fill="red" stroke="orange" stroke-width="2"/>
<text x="620.000000" y="135.000000" fill="black">H</text>
<circle cx="620.000000" cy="230.000000" r="5.000000" fill="red" stroke="orange" stroke-width="2"/>
<text x="620.000000" y="230.000000" fill="black">H</text>
<circle cx="560.000000" cy="270.000000" r="5.000000" fill="red" stroke="orange" stroke-width="2"/>
<text x="560.000000" y="270.000000" fill="black">H</text>
<circle cx="560.000000" cy="365.000000" r="5.000000" fill="red" stroke="orange" stroke-width="2"/>
<text x="560.000000" y="365.000000" fill="black">H</text>
<circle cx="620.000000" cy="325.000000" r="5.000000" fill="red" stroke="orange" stroke-width="2"/>
<text x="620.000000" y="325.000000" fill="black">H</text>
<circle cx="560.000000" cy="460.000000" r="5.000000" fill="red" stroke="orange" stroke-width="2"/>
<text x="560.000000" y="460.000000" fill="black">H</text>
<circle cx="620.000000" cy="420.000000" r="5.000000" fill="red" stroke="orange" stroke-width="2"/>
<text x="620.000000" y="420.000000" fill="black">H</text>
<circle cx="560.000000" cy="555.000000" r="5.000000" fill="red" stroke="orange" stroke-width="2"/>
<text x="560.000000" y="555.000000" fill="black">H</text>
<circle cx="620.000000" cy="515.000000" r="5.000000" fill="red" stroke="orange" stroke-width="2"/>
<text x="620.000000" y="515.000000" fill="black">H</text>
<circle cx="695.000000" cy="175.000000" r="5.000000" fill="red" stroke="orange" stroke-width="2"/>
<text x="695.000000" y="175.000000" fill="black">H</text>
<circle cx="755.000000" cy="135.000000" r="5.000000" fill="red" stroke="orange" stroke-width="2"/>
<text x="755.000000" y="135.000000" fill="black">H</text>
<circle cx="695.000000" cy="270.000000" r="5.000000" fill="red" stroke="orange" stroke-width="2"/>
<text x="695.000000" y="270.000000" fill="black">H</text>
<circle cx="755.000000" cy="230.000000" r="5.000000" fill="red" stroke="orange" stroke-width="2"/>
<text x="755.000000" y="230.000000" fill="black">H</text>
<circle cx="695.000000" cy="365.000000" r="5.000000" fill="red" stroke="orange" stroke-width="2"/>
<text x="695.000000" y="365.000000" fill="black">H</text>
<circle cx="755.000000" cy="325.000000" r="5.000000" fill="red" stroke="orange" stroke-width="2"/>
<text x="755.000000" y="325.000000" fill="black">H</text>
<circle cx="695.000000" cy="460.000000" r="5.000000" fill="red" stroke="orange" stroke-width="2"/>
<text x="695.000000" y="460.000000" fill="black">H</text>
<circle cx="755.000000" cy="420.000000" r="5.000000" fill="red" stroke="orange" stroke-width="2"/>
<text x="755.000000" y="420.000000" fill="black">H</text>
<circle cx="695.000000" cy="555.000000" r="5.000000" fill="red" stroke="orange" stroke-width="2"/>
<text x="695.000000" y="555.000000" fill="black">H</text>
<circle cx="755.000000" cy="515.000000" r="5.000000" fill="red" stroke="orange" stroke-width="2"/>
<text x="755.000000" y="515.000000" fill="black">H</text>
<circle cx="87.500000" cy="87.500000" r="5.000000" fill="blue" stroke="steelblue" stroke-width="2" />
<text x="87.500000" y="87.500000" fill="black">S</text>
<circle cx="222.500000" cy="87.500000" r="5.000000" fill="blue" stroke="steelblue" stroke-width="2" />
<text x="222.500000" y="87.500000" fill="black">S</text>
<circle cx="87.500000" cy="182.500000" r="5.000000" fill="blue" stroke="steelblue" stroke-width="2" />
<text x="87.500000" y="182.500000" fill="black">S</text>
<circle cx="87.500000" cy="372.500000" r="5.000000" fill="blue" stroke="steelblue" stroke-width="2" />
<text x="87.500000" y="372.500000" fill="black">S</text>
<circle cx="87.500000" cy="467.500000" r="5.000000" fill="blue" stroke="steelblue" stroke-width="2" />
<text x="87.500000" y="467.500000" fill="black">S</text>
<circle cx="222.500000" cy="182.500000" r="5.000000" fill="blue" stroke="steelblue" stroke-width="2" />
<text x="222.500000" y="182.500000" fill="black">S</text>
<circle cx="222.500000" cy="277.500000" r="5.000000" fill="blue" stroke="steelblue" stroke-width="2" />
<text x="222.500000" y="277.500000" fill="black">S</text>
<circle cx="222.500000" cy="467.500000" r="5.000000" fill="blue" stroke="steelblue" stroke-width="2" />
<text x="222.500000" y="467.500000" fill="black">S</text>
<circle cx="357.500000" cy="87.500000" r="5.000000" fill="blue" stroke="steelblue" stroke-width="2" />
<text x="357.500000" y="87.500000" fill="black">S</text>
<circle cx="492.500000" cy="87.500000" r="5.000000" fill="blue" stroke="steelblue" stroke-width="2" />
<text x="492.500000" y="87.500000" fill="black">S</text>
<circle cx="357.500000" cy="182.500000" r="5.000000" fill="blue" stroke="steelblue" stroke-width="2" />
<text x="357.500000" y="182.500000" fill="black">S</text>
<circle cx="357.500000" cy="277.500000" r="5.000000" fill="blue" stroke="steelblue" stroke-width="2" />
<text x="357.500000" y="277.500000" fill="black">S</text>
<circle cx="357.500000" cy="372.500000" r="5.000000" fill="blue" stroke="steelblue" stroke-width="2" />
<text x="357.500000" y="372.500000" fill="black">S</text>
<circle cx="492.500000" cy="182.500000" r="5.000000" fill="blue" stroke="steelblue" stroke-width="2" />
<text x="492.500000" y="182.500000" fill="black">S</text>
<circle cx="492.500000" cy="277.500000" r="5.000000" fill="blue" stroke="steelblue" stroke-width="2" />
<text x="492.500000" y="277.500000" fill="black">S</text>
<circle cx="492.500000" cy="372.500000" r="5.000000" fill="blue" stroke="steelblue" stroke-width="2" />
<text x="492.500000" y="372.500000" fill="black">S</text>
<circle cx="492.500000" cy="467.500000" r="5.000000" fill="blue" stroke="steelblue" stroke-width="2" />
<text x="492.500000" y="467.500000" fill="black">S</text>
<circle cx="627.500000" cy="87.500000" r="5.000000" fill="blue" stroke="steelblue" stroke-width="2" />
<text x="627.500000" y="87.500000" fill="black">S</text>
<circle cx="627.500000" cy="182.500000" r="5.000000" fill="blue" stroke="steelblue" stroke-width="2" />
<text x="627.500000" y="182.500000" fill="black">S</text>
<circle cx="627.500000" cy="277.500000" r="5.000000" fill="blue" stroke="steelblue" stroke-width="2" />
<text x="627.500000" y="277.500000" fill="black">S</text>
<circle cx="627.500000" cy="467.500000" r="5.000000" fill="blue" stroke="steelblue" stroke-width="2" />
<text x="627.500000" y="467.500000" fill="black">S</text>
<circle cx="155.000000" cy="135.000000" r="5.000000" fill="lightgrey" stroke="blue" stroke-width="2" />
<text x="155.000000" y="135.000000" fill="black">R</text>
<circle cx="425.000000" cy="135.000000" r="5.000000" fill="lightgrey" stroke="blue" stroke-width="2" />
<text x="425.000000" y="135.000000" fill="black">R</text>
<circle cx="155.000000" cy="230.000000" r="5.000000" fill="lightgrey" stroke="blue" stroke-width="2" />
<text x="155.000000" y="230.000000" fill="black">R</text>
<circle cx="155.000000" cy="325.000000" r="5.000000" fill="lightgrey" stroke="blue" stroke-width="2" />
<text x="155.000000" y="325.000000" fill="black">R</text>
<circle cx="155.000000" cy="420.000000" r="5.000000" fill="lightgrey" stroke="blue" stroke-width="2" />
<text x="155.000000" y="420.000000" fill="black">R</text>
<circle cx="155.000000" cy="515.000000" r="5.000000" fill="lightgrey" stroke="blue" stroke-width="2" />
<text x="155.000000" y="515.000000" fill="black">R</text>
<circle cx="290.000000" cy="230.000000" r="5.000000" fill="lightgrey" stroke="blue" stroke-width="2" />
<text x="290.000000" y="230.000000" fill="black">R</text>
<circle cx="425.000000" cy="230.000000" r="5.000000" fill="lightgrey" stroke="blue" stroke-width="2" />
<text x="425.000000" y="230.000000" fill="black">R</text>
<circle cx="290.000000" cy="325.000000" r="5.000000" fill="lightgrey" stroke="blue" stroke-width="2" />
<text x="290.000000" y="325.000000" fill="black">R</text>
<circle cx="425.000000" cy="325.000000" r="5.000000" fill="lightgrey" stroke="blue" stroke-width="2" />
<text x="425.000000" y="325.000000" fill="black">R</text>
<circle cx="425.000000" cy="515.000000" r="5.000000" fill="lightgrey" stroke="blue" stroke-width="2" />
<text x="425.000000" y="515.000000" fill="black">R</text>
<circle cx="560.000000" cy="135.000000" r="5.000000" fill="lightgrey" stroke="blue" stroke-width="2" />
<text x="560.000000" y="135.000000" fill="black">R</text>
<circle cx="695.000000" cy="135.000000" r="5.000000" fill="lightgrey" stroke="blue" stroke-width="2" />
<text x="695.000000" y="135.000000" fill="black">R</text>
<circle cx="560.000000" cy="230.000000" r="5.000000" fill="lightgrey" stroke="blue" stroke-width="2" />
<text x="560.000000" y="230.000000" fill="black">R</text>
<circle cx="695.000000" cy="230.000000" r="5.000000" fill="lightgrey" stroke="blue" stroke-width="2" />
<text x="695.000000" y="230.000000" fill="black">R</text>
<circle cx="560.000000" cy="515.000000" r="5.000000" fill="lightgrey" stroke="blue" stroke-width="2" />
<text x="560.000000" y="515.000000" fill="black">R</text>
<circle cx="695.000000" cy="325.000000" r="5.000000" fill="lightgrey" stroke="blue" stroke-width="2" />
<text x="695.000000" y="325.000000" fill="black">R</text>
<circle cx="695.000000" cy="420.000000" r="5.000000" fill="lightgrey" stroke="blue" stroke-width="2" />
<text x="695.000000" y="420.000000" fill="black">R</text>
<circle cx="695.000000" cy="515.000000" r="5.000000" fill="lightgrey" stroke="blue" stroke-width="2" />
<text x="695.000000" y="515.000000" fill="black">R</text>
</svg>