<svg xmlns="http://www.w3.org/2000/svg" width="100000" height="100000">
<circle cx="535.000000" cy="331.000000" r="14.000000" fill="tomato" stroke="steelblue" stroke-width="2"/>
<rect x="93.000000" y="74.000000" width="4.000000" height="39.000000" fill="dimgray" stroke="gold" stroke-width="2" />
<rect x="962.000000" y="121.000000" width="42.000000" height="19.000000" fill="darkred" stroke="steelblue" stroke-width="2" />
<rect x="144.000000" y="372.000000" width="21.000000" height="17.000000" fill="tomato" stroke="green" stroke-width="2" />
<circle cx="423.000000" cy="793.000000" r="23.000000" fill="dimgray" stroke="gold" stroke-width="2"/>
<circle cx="651.000000" cy="123.000000" r="1.000000" fill="darkred" stroke="gold" stroke-width="2"/>
<circle cx="1107.000000" cy="756.000000" r="11.000000" fill="chocolate" stroke="gold" stroke-width="2"/>
<rect x="620.000000" y="282.000000" width="43.000000" height="11.000000" fill="dimgray" stroke="gold" stroke-width="2" />
<circle cx="973.000000" cy="584.000000" r="19.000000" fill="lightyellow" stroke="green" stroke-width="2"/>
<rect x="980.000000" y="788.000000" width="1.000000" height="39.000000" fill="lightyellow" stroke="green" stroke-width="2" />
<rect x="824.000000" y="581.000000" width="45.000000" height="30.000000" fill="tomato" stroke="steelblue" stroke-width="2" />
<rect x="660.000000" y="460.000000" width="29.000000" height="33.000000" fill="darkred" stroke="steelblue" stroke-width="2" />
<circle cx="101.000000" cy="630.000000" r="60.000000" fill="tomato" stroke="gold" stroke-width="2"/>
<circle cx="293.000000" cy="165.000000" r="9.000000" fill="tomato" stroke="gold" stroke-width="2"/>
<circle cx="1097.000000" cy="197.000000" r="38.000000" fill="dimgray" stroke="gold" stroke-width="2"/>
<circle cx="483.000000" cy="62.000000" r="32.000000" fill="tomato" stroke="steelblue" stroke-width="2"/>
<rect x="161.000000" y="151.000000" width="3.000000" height="31.000000" fill="tomato" stroke="green" stroke-width="2" />
<circle cx="87.000000" cy="431.000000" r="11.000000" fill="lightyellow" stroke="steelblue" stroke-width="2"/>
<rect x="442.000000" y="77.000000" width="50.000000" height="33.000000" fill="darkred" stroke="steelblue" stroke-width="2" />
<circle cx="680.000000" cy="142.000000" r="12.000000" fill="chocolate" stroke="green" stroke-width="2"/>
<circle cx="541.000000" cy="732.000000" r="25.000000" fill="lightyellow" stroke="gold" stroke-width="2"/>
<circle cx="604.000000" cy="193.000000" r="28.000000" fill="tomato" stroke="steelblue" stroke-width="2"/>
<rect x="111.000000" y="249.000000" width="26.000000" height="11.000000" fill="tomato" stroke="steelblue" stroke-width="2" />
<circle cx="304.000000" cy="462.000000" r="36.000000" fill="tomato" stroke="gold" stroke-width="2"/>
<rect x="1045.000000" y="444.000000" width="45.000000" height="40.000000" fill="chocolate" stroke="steelblue" stroke-width="2" />
<rect x="781.000000" y="408.000000" width="35.000000" height="19.000000" fill="chocolate" stroke="steelblue" stroke-width="2" />
<rect x="678.000000" y="157.000000" width="31.000000" height="4.000000" fill="tomato" stroke="gold" stroke-width="2" />
<rect x="1089.000000" y="491.000000" width="51.000000" height="20.000000" fill="tomato" stroke="green" stroke-width="2" />
<rect x="134.000000" y="640.000000" width="51.000000" height="28.000000" fill="chocolate" stroke="green" stroke-width="2" />
<circle cx="591.000000" cy="433.000000" r="28.000000" fill="tomato" stroke="green" stroke-width="2"/>
<circle cx="509.000000" cy="203.000000" r="41.000000" fill="darkred" stroke="steelblue" stroke-width="2"/>
<circle cx="920.000000" cy="694.000000" r="1.000000" fill="lightyellow" stroke="green" stroke-width="2"/>
<circle cx="130.000000" cy="716.000000" r="21.000000" fill="dimgray" stroke="green" stroke-width="2"/>
<circle cx="111.000000" cy="160.000000" r="14.000000" fill="lightyellow" stroke="green" stroke-width="2"/>
<circle cx="773.000000" cy="179.000000" r="21.000000" fill="lightyellow" stroke="green" stroke-width="2"/>
<rect x="968.000000" y="661.000000" width="9.000000" height="43.000000" fill="lightyellow" stroke="green" stroke-width="2" />
<rect x="928.000000" y="64.000000" width="39.000000" height="4.000000" fill="dimgray" stroke="steelblue" stroke-width="2" />
<rect x="786.000000" y="426.000000" width="27.000000" height="36.000000" fill="lightyellow" stroke="gold" stroke-width="2" />
<circle cx="575.000000" cy="753.000000" r="57.000000" fill="lightyellow" stroke="green" stroke-width="2"/>
<rect x="596.000000" y="552.000000" width="49.000000" height="35.000000" fill="lightyellow" stroke="steelblue" stroke-width="2" />
<rect x="776.000000" y="711.000000" width="1.000000" height="27.000000" fill="tomato" stroke="steelblue" stroke-width="2" />
<rect x="555.000000" y="336.000000" width="10.000000" height="32.000000" fill="dimgray" stroke="steelblue" stroke-width="2" />
<rect x="305.000000" y="384.000000" width="53.000000" height="16.000000" fill="lightyellow" stroke="steelblue" stroke-width="2" />
<rect x="64.000000" y="452.000000" width="47.000000" height="36.000000" fill="lightyellow" stroke="gold" stroke-width="2" />
<rect x="50.000000" y="214.000000" width="17.000000" height="38.000000" fill="tomato" stroke="gold" stroke-width="2" />
<circle cx="664.000000" cy="85.000000" r="41.000000" fill="darkred" stroke="steelblue" stroke-width="2"/>
<circle cx="163.000000" cy="546.000000" r="12.000000" fill="lightyellow" stroke="gold" stroke-width="2"/>
<circle cx="640.000000" cy="138.000000" r="21.000000" fill="lightyellow" stroke="green" stroke-width="2"/>
<rect x="446.000000" y="178.000000" width="24.000000" height="16.000000" fill="chocolate" stroke="green" stroke-width="2" />
<rect x="407.000000" y="255.000000" width="15.000000" height="44.000000" fill="chocolate" stroke="steelblue" stroke-width="2" />
<circle cx="988.000000" cy="607.000000" r="19.000000" fill="darkred" stroke="gold" stroke-width="2"/>
<circle cx="317.000000" cy="698.000000" r="54.000000" fill="lightyellow" stroke="gold" stroke-width="2"/>
<rect x="1117.000000" y="315.000000" width="53.000000" height="41.000000" fill="chocolate" stroke="green" stroke-width="2" />
<circle cx="467.000000" cy="650.000000" r="53.000000" fill="lightyellow" stroke="steelblue" stroke-width="2"/>
<circle cx="206.000000" cy="229.000000" r="16.000000" fill="darkred" stroke="steelblue" stroke-width="2"/>
<rect x="203.000000" y="218.000000" width="17.000000" height="17.000000" fill="darkred" stroke="gold" stroke-width="2" />
<rect x="472.000000" y="458.000000" width="14.000000" height="8.000000" fill="lightyellow" stroke="gold" stroke-width="2" />
<circle cx="828.000000" cy="90.000000" r="4.000000" fill="tomato" stroke="steelblue" stroke-width="2"/>
<rect x="324.000000" y="667.000000" width="36.000000" height="33.000000" fill="dimgray" stroke="steelblue" stroke-width="2" />
<circle cx="811.000000" cy="553.000000" r="8.000000" fill="dimgray" stroke="green" stroke-width="2"/>
<circle cx="768.000000" cy="318.000000" r="38.000000" fill="lightyellow" stroke="steelblue" stroke-width="2"/>
<circle cx="432.000000" cy="332.000000" r="51.000000" fill="darkred" stroke="green" stroke-width="2"/>
<rect x="480.000000" y="713.000000" width="60.000000" height="20.000000" fill="tomato" stroke="green" stroke-width="2" />
<circle cx="1064.000000" cy="168.000000" r="58.000000" fill="tomato" stroke="green" stroke-width="2"/>
<rect x="422.000000" y="560.000000" width="20.000000" height="3.000000" fill="darkred" stroke="steelblue" stroke-width="2" />
<rect x="865.000000" y="685.000000" width="55.000000" height="10.000000" fill="lightyellow" stroke="green" stroke-width="2" />
<rect x="1075.000000" y="691.000000" width="3.000000" height="32.000000" fill="dimgray" stroke="steelblue" stroke-width="2" />
<circle cx="463.000000" cy="768.000000" r="39.000000" fill="tomato" stroke="steelblue" stroke-width="2"/>
<circle cx="148.000000" cy="650.000000" r="51.000000" fill="tomato" stroke="gold" stroke-width="2"/>
<rect x="249.000000" y="187.000000" width="3.000000" height="12.000000" fill="tomato" stroke="steelblue" stroke-width="2" />
<circle cx="417.000000" cy="616.000000" r="32.000000" fill="tomato" stroke="gold" stroke-width="2"/>
<rect x="102.000000" y="92.000000" width="56.000000" height="14.000000" fill="chocolate" stroke="steelblue" stroke-width="2" />
<rect x="1064.000000" y="297.000000" width="19.000000" height="18.000000" fill="dimgray" stroke="steelblue" stroke-width="2" />
<rect x="979.000000" y="625.000000" width="8.000000" height="27.000000" fill="tomato" stroke="green" stroke-width="2" />
<rect x="485.000000" y="438.000000" width="24.000000" height="35.000000" fill="tomato" stroke="green" stroke-width="2" />
<circle cx="538.000000" cy="609.000000" r="31.000000" fill="tomato" stroke="gold" stroke-width="2"/>
<rect x="1066.000000" y="537.000000" width="50.000000" height="44.000000" fill="tomato" stroke="steelblue" stroke-width="2" />
<rect x="177.000000" y="750.000000" width="6.000000" height="23.000000" fill="lightyellow" stroke="gold" stroke-width="2" />
<rect x="796.000000" y="844.000000" width="29.000000" height="37.000000" fill="chocolate" stroke="gold" stroke-width="2" />
<rect x="557.000000" y="548.000000" width="7.000000" height="42.000000" fill="tomato" stroke="gold" stroke-width="2" />
<circle cx="586.000000" cy="145.000000" r="40.000000" fill="darkred" stroke="steelblue" stroke-width="2"/>
<circle cx="918.000000" cy="525.000000" r="48.000000" fill="lightyellow" stroke="green" stroke-width="2"/>
<rect x="467.000000" y="749.000000" width="25.000000" height="18.000000" fill="dimgray" stroke="green" stroke-width="2" />
<circle cx="236.000000" cy="222.000000" r="51.000000" fill="chocolate" stroke="steelblue" stroke-width="2"/>
<circle cx="277.000000" cy="114.000000" r="7.000000" fill="darkred" stroke="gold" stroke-width="2"/>
<rect x="1024.000000" y="513.000000" width="32.000000" height="35.000000" fill="darkred" stroke="green" stroke-width="2" />
<rect x="1080.000000" y="230.000000" width="49.000000" height="24.000000" fill="tomato" stroke="green" stroke-width="2" />
<circle cx="138.000000" cy="735.000000" r="29.000000" fill="darkred" stroke="steelblue" stroke-width="2"/>
<circle cx="798.000000" cy="495.000000" r="12.000000" fill="tomato" stroke="gold" stroke-width="2"/>
<rect x="1114.000000" y="549.000000" width="21.000000" height="27.000000" fill="tomato" stroke="steelblue" stroke-width="2" />
<rect x="630.000000" y="573.000000" width="33.000000" height="24.000000" fill="tomato" stroke="steelblue" stroke-width="2" />
<circle cx="718.000000" cy="154.000000" r="16.000000" fill="lightyellow" stroke="steelblue" stroke-width="2"/>
<circle cx="1022.000000" cy="805.000000" r="22.000000" fill="chocolate" stroke="green" stroke-width="2"/>
<circle cx="604.000000" cy="168.000000" r="34.000000" fill="lightyellow" stroke="green" stroke-width="2"/>
<circle cx="585.000000" cy="415.000000" r="16.000000" fill="dimgray" stroke="green" stroke-width="2"/>
<circle cx="998.000000" cy="552.000000" r="15.000000" fill="dimgray" stroke="steelblue" stroke-width="2"/>
<rect x="324.000000" y="113.000000" width="40.000000" height="38.000000" fill="dimgray" stroke="steelblue" stroke-width="2" />
<rect x="945.000000" y="489.000000" width="27.000000" height="27.000000" fill="chocolate" stroke="steelblue" stroke-width="2" />
<circle cx="68.000000" cy="168.000000" r="8.000000" fill="tomato" stroke="gold" stroke-width="2"/>
<rect x="971.000000" y="102.000000" width="52.000000" height="43.000000" fill="lightyellow" stroke="green" stroke-width="2" />
</svg>