<svg xmlns="http://www.w3.org/2000/svg" width="100000" height="100000">
<circle cx="535.000000" cy="331.000000" r="14.000000" fill="tomato" stroke="steelblue" stroke-width="2"/>
<rect x="93.000000" y="74.000000" width="4.000000" height="39.000000" fill="dimgray" stroke="gold" stroke-width="2" />
<rect x="962.000000" y="121.000000" width="42.000000" height="19.000000" fill="darkred" stroke="steelblue" stroke-width="2" />
<rect x="144.000000" y="372.000000" width="21.000000" height="17.000000" fill="tomato" stroke="green" stroke-width="2" />
<circle cx="423.000000" cy="793.000000" r="23.000000" fill="dimgray" stroke="gold" stroke-width="2"/>
<circle cx="651.000000" cy="123.000000" r="1.000000" fill="darkred" stroke="gold" stroke-width="2"/>
<circle cx="1107.000000" cy="756.000000" r="11.000000" fill="chocolate" stroke="gold" stroke-width="2"/>
<rect x="620.000000" y="282.000000" width="43.000000" height="11.000000" fill="dimgray" stroke="gold" stroke-width="2" />
<circle cx="973.000000" cy="584.000000" r="19.000000" fill="lightyellow" stroke="green" stroke-width="2"/>
<rect x="980.000000" y="788.000000" width="1.000000" height="39.000000" fill="lightyellow" stroke="green" stroke-width="2" />
<rect x="824.000000" y="581.000000" width="45.000000" height="30.000000" fill="tomato" stroke="steelblue" stroke-width="2" />
<rect x="660.000000" y="460.000000" width="29.000000" height="33.000000" fill="darkred" stroke="steelblue" stroke-width="2" />
<circle cx="101.000000" cy="630.000000" r="60.000000" fill="tomato" stroke="gold" stroke-width="2"/>
<circle cx="293.000000" cy="165.000000" r="9.000000" fill="tomato" stroke="gold" stroke-width="2"/>
<circle cx="1097.000000" cy="197.000000" r="38.000000" fill="dimgray" stroke="gold" stroke-width="2"/>
<circle cx="483.000000" cy="62.000000" r="32.000000" fill="tomato" stroke="steelblue" stroke-width="2"/>
<rect x="161.000000" y="151.000000" width="3.000000" height="31.000000" fill="tomato" stroke="green" stroke-width="2" />
<circle cx="87.000000" cy="431.000000" r="11.000000" fill="lightyellow" stroke="steelblue" stroke-width="2"/>
<rect x="442.000000" y="77.000000" width="50.000000" height="33.000000" fill="darkred" stroke="steelblue" stroke-width="2" />
<circle cx="680.000000" cy="142.000000" r="12.000000" fill="chocolate" stroke="green" stroke-width="2"/>
<circle cx="541.000000" cy="732.000000" r="25.000000" fill="lightyellow" stroke="gold" stroke-width="2"/>
<circle cx="604.000000" cy="193.000000" r="28.000000" fill="tomato" stroke="steelblue" stroke-width="2"/>
<rect x="111.000000" y="249.000000" width="26.000000" height="11.000000" fill="tomato" stroke="steelblue" stroke-width="2" />
<circle cx="304.000000" cy="462.000000" r="36.000000" fill="tomato" stroke="gold" stroke-width="2"/>
<rect x="1045.000000" y="444.000000" width="45.000000" height="40.000000" fill="chocolate" stroke="steelblue" stroke-width="2" />
<rect x="781.000000" y="408.000000" width="35.000000" height="19.000000" fill="chocolate" stroke="steelblue" stroke-width="2" />
<rect x="678.000000" y="157.000000" width="31.000000" height="4.000000" fill="tomato" stroke="gold" stroke-width="2" />
<rect x="1089.000000" y="491.000000" width="51.000000" height="20.000000" fill="tomato" stroke="green" stroke-width="2" />
<rect x="134.000000" y="640.000000" width="51.000000" height="28.000000" fill="chocolate" stroke="green" stroke-width="2" />
<circle cx="591.000000" cy="433.000000" r="28.000000" fill="tomato" stroke="green" stroke-width="2"/>
<circle cx="509.000000" cy="203.000000" r="41.000000" fill="darkred" stroke="steelblue" stroke-width="2"/>
<circle cx="920.000000" cy="694.000000" r="1.000000" fill="lightyellow" stroke="green" stroke-width="2"/>
<circle cx="130.000000" cy="716.000000" r="21.000000" fill="dimgray" stroke="green" stroke-width="2"/>
<circle cx="111.000000" cy="160.000000" r="14.000000" fill="lightyellow" stroke="green" stroke-width="2"/>
<circle cx="773.000000" cy="179.000000" r="21.000000" fill="lightyellow" stroke="green" stroke-width="2"/>
<rect x="968.000000" y="661.000000" width="9.000000" height="43.000000" fill="lightyellow" stroke="green" stroke-width="2" />
<rect x="928.000000" y="64.000000" width="39.000000" height="4.000000" fill="dimgray" stroke="steelblue" stroke-width="2" />
<rect x="786.000000" y="426.000000" width="27.000000" height="36.000000" fill="lightyellow" stroke="gold" stroke-width="2" />
<circle cx="575.000000" cy="753.000000" r="57.000000" fill="lightyellow" stroke="green" stroke-width="2"/>
<rect x="596.000000" y="552.000000" width="49.000000" height="35.000000" fill="lightyellow" stroke="steelblue" stroke-width="2" />
<rect x="776.000000" y="711.000000" width="1.000000" height="27.000000" fill="tomato" stroke="steelblue" stroke-width="2" />
<rect x="555.000000" y="336.000000" width="10.000000" height="32.000000" fill="dimgray" stroke="steelblue" stroke-width="2" />
<rect x="305.000000" y="384.000000" width="53.000000" height="16.000000" fill="lightyellow" stroke="steelblue" stroke-width="2" />
<rect x="64.000000" y="452.000000" width="47.000000" height="36.000000" fill="lightyellow" stroke="gold" stroke-width="2" />
<rect x="50.000000" y="214.000000" width="17.000000" height="38.000000" fill="tomato" stroke="gold" stroke-width="2" />
<circle cx="664.000000" cy="85.000000" r="41.000000" fill="darkred" stroke="steelblue" stroke-width="2"/>
<circle cx="163.000000" cy="546.000000" r="12.000000" fill="lightyellow" stroke="gold" stroke-width="2"/>
<circle cx="640.000000" cy="138.000000" r="21.000000" fill="lightyellow" stroke="green" stroke-width="2"/>
<rect x="446.000000" y="178.000000" width="24.000000" height="16.000000" fill="chocolate" stroke="green" stroke-width="2" />
<rect x="407.000000" y="255.000000" width="15.000000" height="44.000000" fill="chocolate" stroke="steelblue" stroke-width="2" />
<circle cx="988.000000" cy="607.000000" r="19.000000" fill="darkred" stroke="gold" stroke-width="2"/>
<circle cx="317.000000" cy="698.000000" r="54.000000" fill="lightyellow" stroke="gold" stroke-width="2"/>
<rect x="1117.000000" y="315.000000" width="53.000000" height="41.000000" fill="chocolate" stroke="green" stroke-width="2" />
<circle cx="467.000000" cy="650.000000" r="53.000000" fill="lightyellow" stroke="steelblue" stroke-width="2"/>
<circle cx="206.000000" cy="229.000000" r="16.000000" fill="darkred" stroke="steelblue" stroke-width="2"/>
<rect x="203.000000" y="218.000000" width="17.000000" height="17.000000" fill="darkred" stroke="gold" stroke-width="2" />
<rect x="472.000000" y="458.000000" width="14.000000" height="8.000000" fill="lightyellow" stroke="gold" stroke-width="2" />
<circle cx="828.000000" cy="90.000000" r="4.000000" fill="tomato" stroke="steelblue" stroke-width="2"/>
<rect x="324.000000" y="667.000000" width="36.000000" height="33.000000" fill="dimgray" stroke="steelblue" stroke-width="2" />
<circle cx="811.000000" cy="553.000000" r="8.000000" fill="dimgray" stroke="green" stroke-width="2"/>
<circle cx="768.000000" cy="318.000000" r="38.000000" fill="lightyellow" stroke="steelblue" stroke-width="2"/>
<circle cx="432.000000" cy="332.000000" r="51.000000" fill="darkred" stroke="green" stroke-width="2"/>
<rect x="480.000000" y="713.000000" width="60.000000" height="20.000000" fill="tomato" stroke="green" stroke-width="2" />
<circle cx="1064.000000" cy="168.000000" r="58.000000" fill="tomato" stroke="green" stroke-width="2"/>
<rect x="422.000000" y="560.000000" width="20.000000" height="3.000000" fill="darkred" stroke="steelblue" stroke-width="2" />
<rect x="865.000000" y="685.000000" width="55.000000" height="10.000000" fill="lightyellow" stroke="green" stroke-width="2" />
<rect x="1075.000000" y="691.000000" width="3.000000" height="32.000000" fill="dimgray" stroke="steelblue" stroke-width="2" />
<circle cx="463.000000" cy="768.000000" r="39.000000" fill="tomato" stroke="steelblue" stroke-width="2"/>
<circle cx="148.000000" cy="650.000000" r="51.000000" fill="tomato" stroke="gold" stroke-width="2"/>
<rect x="249.000000" y="187.000000" width="3.000000" height="12.000000" fill="tomato" stroke="steelblue" stroke-width="2" />
<circle cx="417.000000" cy="616.000000" r="32.000000" fill="tomato" stroke="gold" stroke-width="2"/>
<rect x="102.000000" y="92.000000" width="56.000000" height="14.000000" fill="chocolate" stroke="steelblue" stroke-width="2" />
<rect x="1064.000000" y="297.000000" width="19.000000" height="18.000000" fill="dimgray" stroke="steelblue" stroke-width="2" />
<rect x="979.000000" y="625.000000" width="8.000000" height="27.000000" fill="tomato" stroke="green" stroke-width="2" />
<rect x="485.000000" y="438.000000" width="24.000000" height="35.000000" fill="tomato" stroke="green" stroke-width="2" />
<circle cx="538.000000" cy="609.000000" r="31.000000" fill="tomato" stroke="gold" stroke-width="2"/>
<rect x="1066.000000" y="537.000000" width="50.000000" height="44.000000" fill="tomato" stroke="steelblue" stroke-width="2" />
<rect x="177.000000" y="750.000000" width="6.000000" height="23.000000" fill="lightyellow" stroke="gold" stroke-width="2" />
<rect x="796.000000" y="844.000000" width="29.000000" height="37.000000" fill="chocolate" stroke="gold" stroke-width="2" />
<rect x="557.000000" y="548.000000" width="7.000000" height="42.000000" fill="tomato" stroke="gold" stroke-width="2" />
<circle cx="586.000000" cy="145.000000" r="40.000000" fill="darkred" stroke="steelblue" stroke-width="2"/>
<circle cx="918.000000" cy="525.000000" r="48.000000" fill="lightyellow" stroke="green" stroke-width="2"/>
<rect x="467.000000" y="749.000000" width="25.000000" height="18.000000" fill="dimgray" stroke="green" stroke-width="2" />
<circle cx="236.000000" cy="222.000000" r="51.000000" fill="chocolate" stroke="steelblue" stroke-width="2"/>
<circle cx="277.000000" cy="114.000000" r="7.000000" fill="darkred" stroke="gold" stroke-width="2"/>
<rect x="1024.000000" y="513.000000" width="32.000000" height="35.000000" fill="darkred" stroke="green" stroke-width="2" />
<rect x="1080.000000" y="230.000000" width="49.000000" height="24.000000" fill="tomato" stroke="green" stroke-width="2" />
<circle cx="138.000000" cy="735.000000" r="29.000000" fill="darkred" stroke="steelblue" stroke-width="2"/>
<circle cx="798.000000" cy="495.000000" r="12.000000" fill="tomato" stroke="gold" stroke-width="2"/>
<rect x="1114.000000" y="549.000000" width="21.000000" height="27.000000" fill="tomato" stroke="steelblue" stroke-width="2" />
<rect x="630.000000" y="573.000000" width="33.000000" height="24.000000" fill="tomato" stroke="steelblue" stroke-width="2" />
<circle cx="718.000000" cy="154.000000" r="16.000000" fill="lightyellow" stroke="steelblue" stroke-width="2"/>
<circle cx="1022.000000" cy="805.000000" r="22.000000" fill="chocolate" stroke="green" stroke-width="2"/>
<circle cx="604.000000" cy="168.000000" r="34.000000" fill="lightyellow" stroke="green" stroke-width="2"/>
<circle cx="585.000000" cy="415.000000" r="16.000000" fill="dimgray" stroke="green" stroke-width="2"/>
<circle cx="998.000000" cy="552.000000" r="15.000000" fill="dimgray" stroke="steelblue" stroke-width="2"/>
<rect x="324.000000" y="113.000000" width="40.000000" height="38.000000" fill="dimgray" stroke="steelblue" stroke-width="2" />
<rect x="945.000000" y="489.000000" width="27.000000" height="27.000000" fill="chocolate" stroke="steelblue" stroke-width="2" />
<circle cx="68.000000" cy="168.000000" r="8.000000" fill="tomato" stroke="gold" stroke-width="2"/>
<rect x="971.000000" y="102.000000" width="52.000000" height="43.000000" fill="lightyellow" stroke="green" stroke-width="2" />
<line x1="148.000000" y1="650.000000" x2="535.000000" y2="331.000000" stroke="gold" stroke-width="2"/>
<text x="341.500000" y="490.500000" fill="black">501.53</text>
<line x1="148.000000" y1="650.000000" x2="95.000000" y2="93.500000" stroke="gold" stroke-width="2"/>
<text x="121.500000" y="371.750000" fill="black">559.02</text>
<line x1="148.000000" y1="650.000000" x2="983.000000" y2="130.500000" stroke="gold" stroke-width="2"/>
<text x="565.500000" y="390.250000" fill="black">983.42</text>
<line x1="148.000000" y1="650.000000" x2="154.500000" y2="380.500000" stroke="gold" stroke-width="2"/>
<text x="151.250000" y="515.250000" fill="black">269.58</text>
<line x1="148.000000" y1="650.000000" x2="423.000000" y2="793.000000" stroke="gold" stroke-width="2"/>
<text x="285.500000" y="721.500000" fill="black">309.96</text>
<line x1="148.000000" y1="650.000000" x2="651.000000" y2="123.000000" stroke="gold" stroke-width="2"/>
<text x="399.500000" y="386.500000" fill="black">728.52</text>
<line x1="148.000000" y1="650.000000" x2="1107.000000" y2="756.000000" stroke="gold" stroke-width="2"/>
<text x="627.500000" y="703.000000" fill="black">964.84</text>
<line x1="148.000000" y1="650.000000" x2="641.500000" y2="287.500000" stroke="gold" stroke-width="2"/>
<text x="394.750000" y="468.750000" fill="black">612.33</text>
<line x1="148.000000" y1="650.000000" x2="973.000000" y2="584.000000" stroke="gold" stroke-width="2"/>
<text x="560.500000" y="617.000000" fill="black">827.64</text>
<line x1="148.000000" y1="650.000000" x2="980.500000" y2="807.500000" stroke="gold" stroke-width="2"/>
<text x="564.250000" y="728.750000" fill="black">847.27</text>
<line x1="148.000000" y1="650.000000" x2="846.500000" y2="596.000000" stroke="gold" stroke-width="2"/>
<text x="497.250000" y="623.000000" fill="black">700.58</text>
<line x1="148.000000" y1="650.000000" x2="674.500000" y2="476.500000" stroke="gold" stroke-width="2"/>
<text x="411.250000" y="563.250000" fill="black">554.35</text>
<line x1="148.000000" y1="650.000000" x2="101.000000" y2="630.000000" stroke="gold" stroke-width="2"/>
<text x="124.500000" y="640.000000" fill="black">51.08</text>
<line x1="148.000000" y1="650.000000" x2="293.000000" y2="165.000000" stroke="gold" stroke-width="2"/>
<text x="220.500000" y="407.500000" fill="black">506.21</text>
<line x1="148.000000" y1="650.000000" x2="1097.000000" y2="197.000000" stroke="gold" stroke-width="2"/>
<text x="622.500000" y="423.500000" fill="black">1051.58</text>
<line x1="148.000000" y1="650.000000" x2="483.000000" y2="62.000000" stroke="gold" stroke-width="2"/>
<text x="315.500000" y="356.000000" fill="black">676.73</text>
<line x1="148.000000" y1="650.000000" x2="162.500000" y2="166.500000" stroke="gold" stroke-width="2"/>
<text x="155.250000" y="408.250000" fill="black">483.72</text>
<line x1="148.000000" y1="650.000000" x2="87.000000" y2="431.000000" stroke="gold" stroke-width="2"/>
<text x="117.500000" y="540.500000" fill="black">227.34</text>
<line x1="148.000000" y1="650.000000" x2="467.000000" y2="93.500000" stroke="gold" stroke-width="2"/>
<text x="307.500000" y="371.750000" fill="black">641.45</text>
<line x1="148.000000" y1="650.000000" x2="680.000000" y2="142.000000" stroke="gold" stroke-width="2"/>
<text x="414.000000" y="396.000000" fill="black">735.59</text>
<line x1="148.000000" y1="650.000000" x2="541.000000" y2="732.000000" stroke="gold" stroke-width="2"/>
<text x="344.500000" y="691.000000" fill="black">401.46</text>
<line x1="148.000000" y1="650.000000" x2="604.000000" y2="193.000000" stroke="gold" stroke-width="2"/>
<text x="376.000000" y="421.500000" fill="black">645.59</text>
<line x1="148.000000" y1="650.000000" x2="124.000000" y2="254.500000" stroke="gold" stroke-width="2"/>
<text x="136.000000" y="452.250000" fill="black">396.23</text>
<line x1="148.000000" y1="650.000000" x2="304.000000" y2="462.000000" stroke="gold" stroke-width="2"/>
<text x="226.000000" y="556.000000" fill="black">244.29</text>
<line x1="148.000000" y1="650.000000" x2="1067.500000" y2="464.000000" stroke="gold" stroke-width="2"/>
<text x="607.750000" y="557.000000" fill="black">938.12</text>
<line x1="148.000000" y1="650.000000" x2="798.500000" y2="417.500000" stroke="gold" stroke-width="2"/>
<text x="473.250000" y="533.750000" fill="black">690.80</text>
<line x1="148.000000" y1="650.000000" x2="693.500000" y2="159.000000" stroke="gold" stroke-width="2"/>
<text x="420.750000" y="404.500000" fill="black">733.93</text>
<line x1="148.000000" y1="650.000000" x2="1114.500000" y2="501.000000" stroke="gold" stroke-width="2"/>
<text x="631.250000" y="575.500000" fill="black">977.92</text>
<line x1="148.000000" y1="650.000000" x2="159.500000" y2="654.000000" stroke="gold" stroke-width="2"/>
<text x="153.750000" y="652.000000" fill="black">12.18</text>
<line x1="148.000000" y1="650.000000" x2="591.000000" y2="433.000000" stroke="gold" stroke-width="2"/>
<text x="369.500000" y="541.500000" fill="black">493.29</text>
<line x1="148.000000" y1="650.000000" x2="509.000000" y2="203.000000" stroke="gold" stroke-width="2"/>
<text x="328.500000" y="426.500000" fill="black">574.57</text>
<line x1="148.000000" y1="650.000000" x2="920.000000" y2="694.000000" stroke="gold" stroke-width="2"/>
<text x="534.000000" y="672.000000" fill="black">773.25</text>
<line x1="148.000000" y1="650.000000" x2="130.000000" y2="716.000000" stroke="gold" stroke-width="2"/>
<text x="139.000000" y="683.000000" fill="black">68.41</text>
<line x1="148.000000" y1="650.000000" x2="111.000000" y2="160.000000" stroke="gold" stroke-width="2"/>
<text x="129.500000" y="405.000000" fill="black">491.39</text>
<line x1="148.000000" y1="650.000000" x2="773.000000" y2="179.000000" stroke="gold" stroke-width="2"/>
<text x="460.500000" y="414.500000" fill="black">782.60</text>
<line x1="148.000000" y1="650.000000" x2="972.500000" y2="682.500000" stroke="gold" stroke-width="2"/>
<text x="560.250000" y="666.250000" fill="black">825.14</text>
<line x1="148.000000" y1="650.000000" x2="947.500000" y2="66.000000" stroke="gold" stroke-width="2"/>
<text x="547.750000" y="358.000000" fill="black">990.08</text>
<line x1="148.000000" y1="650.000000" x2="799.500000" y2="444.000000" stroke="gold" stroke-width="2"/>
<text x="473.750000" y="547.000000" fill="black">683.29</text>
<line x1="148.000000" y1="650.000000" x2="575.000000" y2="753.000000" stroke="gold" stroke-width="2"/>
<text x="361.500000" y="701.500000" fill="black">439.25</text>
<line x1="148.000000" y1="650.000000" x2="620.500000" y2="569.500000" stroke="gold" stroke-width="2"/>
<text x="384.250000" y="609.750000" fill="black">479.31</text>
<line x1="148.000000" y1="650.000000" x2="776.500000" y2="724.500000" stroke="gold" stroke-width="2"/>
<text x="462.250000" y="687.250000" fill="black">632.90</text>
<line x1="148.000000" y1="650.000000" x2="560.000000" y2="352.000000" stroke="gold" stroke-width="2"/>
<text x="354.000000" y="501.000000" fill="black">508.48</text>
<line x1="148.000000" y1="650.000000" x2="331.500000" y2="392.000000" stroke="gold" stroke-width="2"/>
<text x="239.750000" y="521.000000" fill="black">316.60</text>
<line x1="148.000000" y1="650.000000" x2="87.500000" y2="470.000000" stroke="gold" stroke-width="2"/>
<text x="117.750000" y="560.000000" fill="black">189.90</text>
<line x1="148.000000" y1="650.000000" x2="58.500000" y2="233.000000" stroke="gold" stroke-width="2"/>
<text x="103.250000" y="441.500000" fill="black">426.50</text>
<line x1="148.000000" y1="650.000000" x2="664.000000" y2="85.000000" stroke="gold" stroke-width="2"/>
<text x="406.000000" y="367.500000" fill="black">765.17</text>
<line x1="148.000000" y1="650.000000" x2="163.000000" y2="546.000000" stroke="gold" stroke-width="2"/>
<text x="155.500000" y="598.000000" fill="black">105.08</text>
<line x1="148.000000" y1="650.000000" x2="640.000000" y2="138.000000" stroke="gold" stroke-width="2"/>
<text x="394.000000" y="394.000000" fill="black">710.08</text>
<line x1="148.000000" y1="650.000000" x2="458.000000" y2="186.000000" stroke="gold" stroke-width="2"/>
<text x="303.000000" y="418.000000" fill="black">558.03</text>
<line x1="148.000000" y1="650.000000" x2="414.500000" y2="277.000000" stroke="gold" stroke-width="2"/>
<text x="281.250000" y="463.500000" fill="black">458.42</text>
<line x1="148.000000" y1="650.000000" x2="988.000000" y2="607.000000" stroke="gold" stroke-width="2"/>
<text x="568.000000" y="628.500000" fill="black">841.10</text>
<line x1="148.000000" y1="650.000000" x2="317.000000" y2="698.000000" stroke="gold" stroke-width="2"/>
<text x="232.500000" y="674.000000" fill="black">175.68</text>
<line x1="148.000000" y1="650.000000" x2="1143.500000" y2="335.500000" stroke="gold" stroke-width="2"/>
<text x="645.750000" y="492.750000" fill="black">1044.00</text>
<line x1="148.000000" y1="650.000000" x2="467.000000" y2="650.000000" stroke="gold" stroke-width="2"/>
<text x="307.500000" y="650.000000" fill="black">319.00</text>
<line x1="148.000000" y1="650.000000" x2="206.000000" y2="229.000000" stroke="gold" stroke-width="2"/>
<text x="177.000000" y="439.500000" fill="black">424.98</text>
<line x1="148.000000" y1="650.000000" x2="211.500000" y2="226.500000" stroke="gold" stroke-width="2"/>
<text x="179.750000" y="438.250000" fill="black">428.23</text>
<line x1="148.000000" y1="650.000000" x2="479.000000" y2="462.000000" stroke="gold" stroke-width="2"/>
<text x="313.500000" y="556.000000" fill="black">380.66</text>
<line x1="148.000000" y1="650.000000" x2="828.000000" y2="90.000000" stroke="gold" stroke-width="2"/>
<text x="488.000000" y="370.000000" fill="black">880.91</text>
<line x1="148.000000" y1="650.000000" x2="342.000000" y2="683.500000" stroke="gold" stroke-width="2"/>
<text x="245.000000" y="666.750000" fill="black">196.87</text>
<line x1="148.000000" y1="650.000000" x2="811.000000" y2="553.000000" stroke="gold" stroke-width="2"/>
<text x="479.500000" y="601.500000" fill="black">670.06</text>
<line x1="148.000000" y1="650.000000" x2="768.000000" y2="318.000000" stroke="gold" stroke-width="2"/>
<text x="458.000000" y="484.000000" fill="black">703.30</text>
<line x1="148.000000" y1="650.000000" x2="432.000000" y2="332.000000" stroke="gold" stroke-width="2"/>
<text x="290.000000" y="491.000000" fill="black">426.36</text>
<line x1="148.000000" y1="650.000000" x2="510.000000" y2="723.000000" stroke="gold" stroke-width="2"/>
<text x="329.000000" y="686.500000" fill="black">369.29</text>
<line x1="148.000000" y1="650.000000" x2="1064.000000" y2="168.000000" stroke="gold" stroke-width="2"/>
<text x="606.000000" y="409.000000" fill="black">1035.07</text>
<line x1="148.000000" y1="650.000000" x2="432.000000" y2="561.500000" stroke="gold" stroke-width="2"/>
<text x="290.000000" y="605.750000" fill="black">297.47</text>
<line x1="148.000000" y1="650.000000" x2="892.500000" y2="690.000000" stroke="gold" stroke-width="2"/>
<text x="520.250000" y="670.000000" fill="black">745.57</text>
<line x1="148.000000" y1="650.000000" x2="1076.500000" y2="707.000000" stroke="gold" stroke-width="2"/>
<text x="612.250000" y="678.500000" fill="black">930.25</text>
<line x1="148.000000" y1="650.000000" x2="463.000000" y2="768.000000" stroke="gold" stroke-width="2"/>
<text x="305.500000" y="709.000000" fill="black">336.38</text>
<line x1="148.000000" y1="650.000000" x2="148.000000" y2="650.000000" stroke="gold" stroke-width="2"/>
<text x="148.000000" y="650.000000" fill="black">0.00</text>
<line x1="148.000000" y1="650.000000" x2="417.000000" y2="616.000000" stroke="gold" stroke-width="2"/>
<text x="282.500000" y="633.000000" fill="black">271.14</text>
<line x1="148.000000" y1="650.000000" x2="130.000000" y2="99.000000" stroke="gold" stroke-width="2"/>
<text x="139.000000" y="374.500000" fill="black">551.29</text>
<line x1="148.000000" y1="650.000000" x2="1073.500000" y2="306.000000" stroke="gold" stroke-width="2"/>
<text x="610.750000" y="478.000000" fill="black">987.36</text>
<line x1="148.000000" y1="650.000000" x2="983.000000" y2="638.500000" stroke="gold" stroke-width="2"/>
<text x="565.500000" y="644.250000" fill="black">835.08</text>
<line x1="148.000000" y1="650.000000" x2="497.000000" y2="455.500000" stroke="gold" stroke-width="2"/>
<text x="322.500000" y="552.750000" fill="black">399.54</text>
<line x1="148.000000" y1="650.000000" x2="538.000000" y2="609.000000" stroke="gold" stroke-width="2"/>
<text x="343.000000" y="629.500000" fill="black">392.15</text>
<line x1="148.000000" y1="650.000000" x2="1091.000000" y2="559.000000" stroke="gold" stroke-width="2"/>
<text x="619.500000" y="604.500000" fill="black">947.38</text>
<line x1="148.000000" y1="650.000000" x2="180.000000" y2="761.500000" stroke="gold" stroke-width="2"/>
<text x="164.000000" y="705.750000" fill="black">116.00</text>
<line x1="148.000000" y1="650.000000" x2="810.500000" y2="862.500000" stroke="gold" stroke-width="2"/>
<text x="479.250000" y="756.250000" fill="black">695.75</text>
<line x1="148.000000" y1="650.000000" x2="560.500000" y2="569.000000" stroke="gold" stroke-width="2"/>
<text x="354.250000" y="609.500000" fill="black">420.38</text>
<line x1="148.000000" y1="650.000000" x2="586.000000" y2="145.000000" stroke="gold" stroke-width="2"/>
<text x="367.000000" y="397.500000" fill="black">668.48</text>
<line x1="148.000000" y1="650.000000" x2="918.000000" y2="525.000000" stroke="gold" stroke-width="2"/>
<text x="533.000000" y="587.500000" fill="black">780.08</text>
<line x1="148.000000" y1="650.000000" x2="479.500000" y2="758.000000" stroke="gold" stroke-width="2"/>
<text x="313.750000" y="704.000000" fill="black">348.65</text>
<line x1="148.000000" y1="650.000000" x2="236.000000" y2="222.000000" stroke="gold" stroke-width="2"/>
<text x="192.000000" y="436.000000" fill="black">436.95</text>
<line x1="148.000000" y1="650.000000" x2="277.000000" y2="114.000000" stroke="gold" stroke-width="2"/>
<text x="212.500000" y="382.000000" fill="black">551.30</text>
<line x1="148.000000" y1="650.000000" x2="1040.000000" y2="530.500000" stroke="gold" stroke-width="2"/>
<text x="594.000000" y="590.250000" fill="black">899.97</text>
<line x1="148.000000" y1="650.000000" x2="1104.500000" y2="242.000000" stroke="gold" stroke-width="2"/>
<text x="626.250000" y="446.000000" fill="black">1039.88</text>
<line x1="148.000000" y1="650.000000" x2="138.000000" y2="735.000000" stroke="gold" stroke-width="2"/>
<text x="143.000000" y="692.500000" fill="black">85.59</text>
<line x1="148.000000" y1="650.000000" x2="798.000000" y2="495.000000" stroke="gold" stroke-width="2"/>
<text x="473.000000" y="572.500000" fill="black">668.23</text>
<line x1="148.000000" y1="650.000000" x2="1124.500000" y2="562.500000" stroke="gold" stroke-width="2"/>
<text x="636.250000" y="606.250000" fill="black">980.41</text>
<line x1="148.000000" y1="650.000000" x2="646.500000" y2="585.000000" stroke="gold" stroke-width="2"/>
<text x="397.250000" y="617.500000" fill="black">502.72</text>
<line x1="148.000000" y1="650.000000" x2="718.000000" y2="154.000000" stroke="gold" stroke-width="2"/>
<text x="433.000000" y="402.000000" fill="black">755.59</text>
<line x1="148.000000" y1="650.000000" x2="1022.000000" y2="805.000000" stroke="gold" stroke-width="2"/>
<text x="585.000000" y="727.500000" fill="black">887.64</text>
<line x1="148.000000" y1="650.000000" x2="604.000000" y2="168.000000" stroke="gold" stroke-width="2"/>
<text x="376.000000" y="409.000000" fill="black">663.52</text>
<line x1="148.000000" y1="650.000000" x2="585.000000" y2="415.000000" stroke="gold" stroke-width="2"/>
<text x="366.500000" y="532.500000" fill="black">496.18</text>
<line x1="148.000000" y1="650.000000" x2="998.000000" y2="552.000000" stroke="gold" stroke-width="2"/>
<text x="573.000000" y="601.000000" fill="black">855.63</text>
<line x1="148.000000" y1="650.000000" x2="344.000000" y2="132.000000" stroke="gold" stroke-width="2"/>
<text x="246.000000" y="391.000000" fill="black">553.84</text>
<line x1="148.000000" y1="650.000000" x2="958.500000" y2="502.500000" stroke="gold" stroke-width="2"/>
<text x="553.250000" y="576.250000" fill="black">823.81</text>
<line x1="148.000000" y1="650.000000" x2="68.000000" y2="168.000000" stroke="gold" stroke-width="2"/>
<text x="108.000000" y="409.000000" fill="black">488.59</text>
<line x1="148.000000" y1="650.000000" x2="997.000000" y2="123.500000" stroke="gold" stroke-width="2"/>
<text x="572.500000" y="386.750000" fill="black">999.00</text>
</svg>