<svg xmlns="http://www.w3.org/2000/svg" width="100000" height="100000">
<rect x="311.000000" y="383.000000" width="28.000000" height="38.000000" fill="tomato" stroke="green" stroke-width="2" />
<rect x="648.000000" y="434.000000" width="16.000000" height="31.000000" fill="darkred" stroke="green" stroke-width="2" />
<rect x="231.000000" y="522.000000" width="118.000000" height="65.000000" fill="chocolate" stroke="green" stroke-width="2" />
<rect x="533.000000" y="76.000000" width="62.000000" height="71.000000" fill="dimgray" stroke="steelblue" stroke-width="2" />
<rect x="2.000000" y="281.000000" width="10.000000" height="12.000000" fill="dimgray" stroke="gold" stroke-width="2" />
<rect x="236.000000" y="12.000000" width="54.000000" height="74.000000" fill="lightyellow" stroke="steelblue" stroke-width="2" />
<rect x="13.000000" y="481.000000" width="87.000000" height="20.000000" fill="tomato" stroke="green" stroke-width="2" />
<rect x="1072.000000" y="355.000000" width="37.000000" height="10.000000" fill="tomato" stroke="steelblue" stroke-width="2" />
<rect x="339.000000" y="211.000000" width="53.000000" height="39.000000" fill="tomato" stroke="steelblue" stroke-width="2" />
<rect x="273.000000" y="745.000000" width="88.000000" height="82.000000" fill="lightyellow" stroke="gold" stroke-width="2" />
<rect x="400.000000" y="281.000000" width="62.000000" height="89.000000" fill="lightyellow" stroke="green" stroke-width="2" />
<rect x="99.000000" y="662.000000" width="20.000000" height="22.000000" fill="tomato" stroke="steelblue" stroke-width="2" />
<rect x="165.000000" y="313.000000" width="6.000000" height="65.000000" fill="chocolate" stroke="steelblue" stroke-width="2" />
<rect x="499.000000" y="573.000000" width="120.000000" height="62.000000" fill="dimgray" stroke="steelblue" stroke-width="2" />
<rect x="620.000000" y="367.000000" width="63.000000" height="13.000000" fill="dimgray" stroke="steelblue" stroke-width="2" />
<rect x="563.000000" y="230.000000" width="18.000000" height="23.000000" fill="darkred" stroke="green" stroke-width="2" />
<rect x="770.000000" y="807.000000" width="81.000000" height="15.000000" fill="darkred" stroke="gold" stroke-width="2" />
<rect x="988.000000" y="464.000000" width="86.000000" height="8.000000" fill="chocolate" stroke="green" stroke-width="2" />
<rect x="501.000000" y="137.000000" width="108.000000" height="57.000000" fill="lightyellow" stroke="gold" stroke-width="2" />
<rect x="932.000000" y="783.000000" width="109.000000" height="32.000000" fill="darkred" stroke="green" stroke-width="2" />
<rect x="618.000000" y="58.000000" width="46.000000" height="10.000000" fill="dimgray" stroke="steelblue" stroke-width="2" />
<rect x="117.000000" y="806.000000" width="48.000000" height="23.000000" fill="lightyellow" stroke="green" stroke-width="2" />
<rect x="892.000000" y="163.000000" width="90.000000" height="68.000000" fill="tomato" stroke="steelblue" stroke-width="2" />
<rect x="36.000000" y="574.000000" width="12.000000" height="52.000000" fill="dimgray" stroke="steelblue" stroke-width="2" />
<rect x="292.000000" y="540.000000" width="52.000000" height="90.000000" fill="tomato" stroke="green" stroke-width="2" />
<rect x="479.000000" y="120.000000" width="88.000000" height="41.000000" fill="dimgray" stroke="gold" stroke-width="2" />
<rect x="902.000000" y="431.000000" width="26.000000" height="63.000000" fill="tomato" stroke="green" stroke-width="2" />
<rect x="471.000000" y="381.000000" width="107.000000" height="1.000000" fill="lightyellow" stroke="steelblue" stroke-width="2" />
<rect x="1060.000000" y="718.000000" width="36.000000" height="62.000000" fill="tomato" stroke="steelblue" stroke-width="2" />
<rect x="802.000000" y="626.000000" width="63.000000" height="75.000000" fill="darkred" stroke="green" stroke-width="2" />
<rect x="808.000000" y="93.000000" width="113.000000" height="68.000000" fill="tomato" stroke="steelblue" stroke-width="2" />
<rect x="411.000000" y="723.000000" width="26.000000" height="58.000000" fill="lightyellow" stroke="gold" stroke-width="2" />
<rect x="61.000000" y="416.000000" width="57.000000" height="76.000000" fill="chocolate" stroke="gold" stroke-width="2" />
<rect x="105.000000" y="34.000000" width="27.000000" height="72.000000" fill="dimgray" stroke="gold" stroke-width="2" />
<rect x="939.000000" y="357.000000" width="66.000000" height="88.000000" fill="lightyellow" stroke="green" stroke-width="2" />
<rect x="803.000000" y="202.000000" width="82.000000" height="15.000000" fill="chocolate" stroke="gold" stroke-width="2" />
<rect x="605.000000" y="324.000000" width="38.000000" height="46.000000" fill="tomato" stroke="steelblue" stroke-width="2" />
<rect x="457.000000" y="358.000000" width="109.000000" height="59.000000" fill="lightyellow" stroke="steelblue" stroke-width="2" />
<rect x="415.000000" y="526.000000" width="77.000000" height="83.000000" fill="tomato" stroke="gold" stroke-width="2" />
<rect x="933.000000" y="156.000000" width="53.000000" height="12.000000" fill="dimgray" stroke="green" stroke-width="2" />
<rect x="513.000000" y="373.000000" width="57.000000" height="63.000000" fill="darkred" stroke="green" stroke-width="2" />
<rect x="1017.000000" y="156.000000" width="8.000000" height="26.000000" fill="lightyellow" stroke="steelblue" stroke-width="2" />
<rect x="469.000000" y="73.000000" width="105.000000" height="89.000000" fill="tomato" stroke="steelblue" stroke-width="2" />
<rect x="119.000000" y="125.000000" width="2.000000" height="11.000000" fill="tomato" stroke="green" stroke-width="2" />
<rect x="259.000000" y="759.000000" width="80.000000" height="65.000000" fill="chocolate" stroke="green" stroke-width="2" />
<rect x="259.000000" y="72.000000" width="14.000000" height="18.000000" fill="darkred" stroke="gold" stroke-width="2" />
<rect x="997.000000" y="633.000000" width="42.000000" height="9.000000" fill="lightyellow" stroke="steelblue" stroke-width="2" />
<rect x="0.000000" y="450.000000" width="5.000000" height="55.000000" fill="darkred" stroke="green" stroke-width="2" />
<rect x="285.000000" y="783.000000" width="90.000000" height="19.000000" fill="lightyellow" stroke="gold" stroke-width="2" />
<rect x="843.000000" y="293.000000" width="63.000000" height="75.000000" fill="lightyellow" stroke="steelblue" stroke-width="2" />
</svg>