<svg xmlns="http://www.w3.org/2000/svg" width="100000" height="100000">
<rect x="401.000000" y="664.000000" width="46.000000" height="37.000000" fill="darkred" stroke="gold" stroke-width="2" />
<rect x="35.000000" y="583.000000" width="9.000000" height="8.000000" fill="lightyellow" stroke="steelblue" stroke-width="2" />
<rect x="340.000000" y="722.000000" width="36.000000" height="34.000000" fill="dimgray" stroke="gold" stroke-width="2" />
<rect x="872.000000" y="395.000000" width="43.000000" height="11.000000" fill="chocolate" stroke="steelblue" stroke-width="2" />
<rect x="333.000000" y="475.000000" width="7.000000" height="27.000000" fill="darkred" stroke="steelblue" stroke-width="2" />
<rect x="670.000000" y="230.000000" width="51.000000" height="3.000000" fill="dimgray" stroke="green" stroke-width="2" />
<rect x="485.000000" y="321.000000" width="2.000000" height="26.000000" fill="chocolate" stroke="steelblue" stroke-width="2" />
<rect x="959.000000" y="674.000000" width="35.000000" height="11.000000" fill="lightyellow" stroke="steelblue" stroke-width="2" />
<rect x="1115.000000" y="800.000000" width="21.000000" height="23.000000" fill="lightyellow" stroke="green" stroke-width="2" />
<rect x="309.000000" y="157.000000" width="39.000000" height="5.000000" fill="tomato" stroke="steelblue" stroke-width="2" />
<rect x="1.000000" y="688.000000" width="40.000000" height="17.000000" fill="tomato" stroke="steelblue" stroke-width="2" />
<rect x="661.000000" y="243.000000" width="56.000000" height="5.000000" fill="chocolate" stroke="green" stroke-width="2" />
<rect x="966.000000" y="147.000000" width="40.000000" height="32.000000" fill="tomato" stroke="green" stroke-width="2" />
<rect x="380.000000" y="30.000000" width="35.000000" height="20.000000" fill="tomato" stroke="gold" stroke-width="2" />
<rect x="706.000000" y="766.000000" width="57.000000" height="36.000000" fill="lightyellow" stroke="gold" stroke-width="2" />
<rect x="12.000000" y="342.000000" width="31.000000" height="34.000000" fill="lightyellow" stroke="gold" stroke-width="2" />
<rect x="589.000000" y="848.000000" width="29.000000" height="38.000000" fill="lightyellow" stroke="gold" stroke-width="2" />
<rect x="638.000000" y="226.000000" width="24.000000" height="28.000000" fill="chocolate" stroke="green" stroke-width="2" />
<rect x="672.000000" y="481.000000" width="39.000000" height="16.000000" fill="chocolate" stroke="steelblue" stroke-width="2" />
<rect x="1129.000000" y="367.000000" width="33.000000" height="10.000000" fill="tomato" stroke="steelblue" stroke-width="2" />
<rect x="710.000000" y="257.000000" width="52.000000" height="9.000000" fill="darkred" stroke="steelblue" stroke-width="2" />
<rect x="989.000000" y="493.000000" width="40.000000" height="22.000000" fill="tomato" stroke="green" stroke-width="2" />
<rect x="188.000000" y="36.000000" width="51.000000" height="39.000000" fill="tomato" stroke="steelblue" stroke-width="2" />
<rect x="1089.000000" y="621.000000" width="32.000000" height="23.000000" fill="lightyellow" stroke="steelblue" stroke-width="2" />
<rect x="663.000000" y="53.000000" width="25.000000" height="24.000000" fill="darkred" stroke="steelblue" stroke-width="2" />
<rect x="765.000000" y="436.000000" width="5.000000" height="33.000000" fill="tomato" stroke="steelblue" stroke-width="2" />
<rect x="785.000000" y="784.000000" width="27.000000" height="26.000000" fill="darkred" stroke="green" stroke-width="2" />
<rect x="1002.000000" y="405.000000" width="35.000000" height="21.000000" fill="tomato" stroke="gold" stroke-width="2" />
<rect x="201.000000" y="644.000000" width="37.000000" height="21.000000" fill="tomato" stroke="gold" stroke-width="2" />
<rect x="243.000000" y="351.000000" width="60.000000" height="34.000000" fill="lightyellow" stroke="steelblue" stroke-width="2" />
<rect x="30.000000" y="354.000000" width="49.000000" height="20.000000" fill="lightyellow" stroke="steelblue" stroke-width="2" />
<rect x="949.000000" y="795.000000" width="45.000000" height="19.000000" fill="lightyellow" stroke="steelblue" stroke-width="2" />
<rect x="488.000000" y="9.000000" width="20.000000" height="28.000000" fill="darkred" stroke="steelblue" stroke-width="2" />
<rect x="130.000000" y="833.000000" width="55.000000" height="39.000000" fill="lightyellow" stroke="steelblue" stroke-width="2" />
<rect x="359.000000" y="730.000000" width="3.000000" height="45.000000" fill="lightyellow" stroke="steelblue" stroke-width="2" />
<rect x="428.000000" y="171.000000" width="17.000000" height="26.000000" fill="tomato" stroke="gold" stroke-width="2" />
<rect x="291.000000" y="149.000000" width="16.000000" height="9.000000" fill="tomato" stroke="steelblue" stroke-width="2" />
<rect x="26.000000" y="819.000000" width="13.000000" height="16.000000" fill="lightyellow" stroke="green" stroke-width="2" />
<rect x="210.000000" y="447.000000" width="37.000000" height="22.000000" fill="dimgray" stroke="gold" stroke-width="2" />
<rect x="453.000000" y="400.000000" width="15.000000" height="45.000000" fill="lightyellow" stroke="green" stroke-width="2" />
<rect x="1045.000000" y="852.000000" width="16.000000" height="34.000000" fill="lightyellow" stroke="green" stroke-width="2" />
<circle cx="556.000000" cy="216.000000" r="59.000000" fill="chocolate" stroke="gold" stroke-width="2"/>
<rect x="328.000000" y="588.000000" width="5.000000" height="39.000000" fill="tomato" stroke="steelblue" stroke-width="2" />
<rect x="352.000000" y="211.000000" width="29.000000" height="7.000000" fill="dimgray" stroke="green" stroke-width="2" />
<rect x="1019.000000" y="166.000000" width="36.000000" height="41.000000" fill="tomato" stroke="gold" stroke-width="2" />
<rect x="761.000000" y="853.000000" width="43.000000" height="19.000000" fill="lightyellow" stroke="gold" stroke-width="2" />
<rect x="1099.000000" y="244.000000" width="52.000000" height="43.000000" fill="dimgray" stroke="gold" stroke-width="2" />
<rect x="579.000000" y="296.000000" width="30.000000" height="1.000000" fill="tomato" stroke="green" stroke-width="2" />
<rect x="28.000000" y="640.000000" width="24.000000" height="2.000000" fill="dimgray" stroke="green" stroke-width="2" />
<rect x="80.000000" y="273.000000" width="57.000000" height="41.000000" fill="dimgray" stroke="gold" stroke-width="2" />
<rect x="100.000000" y="100.000000" width="100.000000" height="50.000000" fill="yellow" stroke="black" stroke-width="2" />
<rect x="150.000000" y="140.000000" width="30.000000" height="80.000000" fill="blue" stroke="black" stroke-width="2" /><rect x="100.000000" y="100.000000" width="100.000000" height="120.000000" fill="transparent" stroke="purple" stroke-width="2" stroke-dasharray="3, 3"/>
<text x="100.000000" y="100.000000" fill="purple">SOBREPOE</text>
</svg>