<svg xmlns="http://www.w3.org/2000/svg" width="100000" height="100000">
<rect x="59.000000" y="768.000000" width="3.000000" height="6.000000" fill="tomato" stroke="steelblue" stroke-width="2" />
<rect x="1156.000000" y="148.000000" width="10.000000" height="5.000000" fill="tomato" stroke="green" stroke-width="2" />
<rect x="1182.000000" y="316.000000" width="8.000000" height="4.000000" fill="dimgray" stroke="steelblue" stroke-width="2" />
<rect x="1056.000000" y="191.000000" width="8.000000" height="4.000000" fill="dimgray" stroke="gold" stroke-width="2" />
<rect x="51.000000" y="591.000000" width="9.000000" height="6.000000" fill="chocolate" stroke="green" stroke-width="2" />
<rect x="586.000000" y="850.000000" width="11.000000" height="1.000000" fill="lightyellow" stroke="gold" stroke-width="2" />
<rect x="303.000000" y="629.000000" width="12.000000" height="7.000000" fill="darkred" stroke="steelblue" stroke-width="2" />
<rect x="476.000000" y="79.000000" width="2.000000" height="7.000000" fill="darkred" stroke="steelblue" stroke-width="2" />
<rect x="190.000000" y="55.000000" width="3.000000" height="6.000000" fill="dimgray" stroke="steelblue" stroke-width="2" />
<rect x="67.000000" y="634.000000" width="7.000000" height="9.000000" fill="chocolate" stroke="steelblue" stroke-width="2" />
<rect x="815.000000" y="306.000000" width="11.000000" height="6.000000" fill="tomato" stroke="steelblue" stroke-width="2" />
<rect x="1080.000000" y="294.000000" width="9.000000" height="6.000000" fill="tomato" stroke="steelblue" stroke-width="2" />
<rect x="1161.000000" y="669.000000" width="9.000000" height="8.000000" fill="chocolate" stroke="steelblue" stroke-width="2" />
<rect x="803.000000" y="736.000000" width="11.000000" height="9.000000" fill="tomato" stroke="green" stroke-width="2" />
<rect x="723.000000" y="260.000000" width="10.000000" height="7.000000" fill="lightyellow" stroke="steelblue" stroke-width="2" />
<rect x="1152.000000" y="478.000000" width="10.000000" height="8.000000" fill="tomato" stroke="green" stroke-width="2" />
<rect x="369.000000" y="186.000000" width="7.000000" height="6.000000" fill="darkred" stroke="gold" stroke-width="2" />
<rect x="163.000000" y="281.000000" width="8.000000" height="1.000000" fill="chocolate" stroke="steelblue" stroke-width="2" />
<rect x="633.000000" y="123.000000" width="10.000000" height="6.000000" fill="tomato" stroke="green" stroke-width="2" />
<rect x="477.000000" y="205.000000" width="3.000000" height="9.000000" fill="tomato" stroke="gold" stroke-width="2" />
<rect x="250.000000" y="287.000000" width="10.000000" height="9.000000" fill="lightyellow" stroke="steelblue" stroke-width="2" />
<rect x="846.000000" y="281.000000" width="6.000000" height="1.000000" fill="chocolate" stroke="green" stroke-width="2" />
<rect x="69.000000" y="130.000000" width="3.000000" height="3.000000" fill="chocolate" stroke="green" stroke-width="2" />
<rect x="297.000000" y="296.000000" width="8.000000" height="1.000000" fill="tomato" stroke="gold" stroke-width="2" />
<rect x="874.000000" y="524.000000" width="10.000000" height="8.000000" fill="tomato" stroke="gold" stroke-width="2" />
<rect x="783.000000" y="415.000000" width="11.000000" height="5.000000" fill="tomato" stroke="steelblue" stroke-width="2" />
<rect x="126.000000" y="121.000000" width="11.000000" height="5.000000" fill="darkred" stroke="gold" stroke-width="2" />
<rect x="669.000000" y="736.000000" width="2.000000" height="6.000000" fill="dimgray" stroke="steelblue" stroke-width="2" />
<rect x="1101.000000" y="581.000000" width="2.000000" height="6.000000" fill="darkred" stroke="steelblue" stroke-width="2" />
<rect x="927.000000" y="720.000000" width="5.000000" height="6.000000" fill="lightyellow" stroke="green" stroke-width="2" />
<rect x="833.000000" y="751.000000" width="9.000000" height="2.000000" fill="chocolate" stroke="gold" stroke-width="2" />
<rect x="772.000000" y="194.000000" width="9.000000" height="6.000000" fill="tomato" stroke="green" stroke-width="2" />
<rect x="716.000000" y="316.000000" width="9.000000" height="8.000000" fill="lightyellow" stroke="steelblue" stroke-width="2" />
<rect x="1151.000000" y="801.000000" width="12.000000" height="1.000000" fill="chocolate" stroke="green" stroke-width="2" />
<rect x="551.000000" y="771.000000" width="9.000000" height="3.000000" fill="darkred" stroke="gold" stroke-width="2" />
<rect x="819.000000" y="146.000000" width="10.000000" height="4.000000" fill="tomato" stroke="gold" stroke-width="2" />
<rect x="348.000000" y="881.000000" width="5.000000" height="2.000000" fill="chocolate" stroke="steelblue" stroke-width="2" />
<rect x="157.000000" y="272.000000" width="5.000000" height="8.000000" fill="tomato" stroke="steelblue" stroke-width="2" />
<rect x="938.000000" y="223.000000" width="7.000000" height="6.000000" fill="lightyellow" stroke="gold" stroke-width="2" />
<rect x="1169.000000" y="144.000000" width="10.000000" height="9.000000" fill="lightyellow" stroke="green" stroke-width="2" />
<rect x="147.000000" y="437.000000" width="8.000000" height="8.000000" fill="darkred" stroke="green" stroke-width="2" />
<rect x="781.000000" y="535.000000" width="11.000000" height="4.000000" fill="lightyellow" stroke="gold" stroke-width="2" />
<rect x="1159.000000" y="307.000000" width="6.000000" height="4.000000" fill="lightyellow" stroke="green" stroke-width="2" />
<rect x="899.000000" y="606.000000" width="12.000000" height="2.000000" fill="dimgray" stroke="steelblue" stroke-width="2" />
<rect x="644.000000" y="761.000000" width="11.000000" height="9.000000" fill="chocolate" stroke="steelblue" stroke-width="2" />
<rect x="582.000000" y="229.000000" width="10.000000" height="2.000000" fill="tomato" stroke="gold" stroke-width="2" />
<rect x="1117.000000" y="211.000000" width="3.000000" height="9.000000" fill="tomato" stroke="gold" stroke-width="2" />
<rect x="566.000000" y="670.000000" width="4.000000" height="8.000000" fill="chocolate" stroke="steelblue" stroke-width="2" />
<rect x="477.000000" y="459.000000" width="10.000000" height="6.000000" fill="lightyellow" stroke="gold" stroke-width="2" />
<rect x="722.000000" y="49.000000" width="12.000000" height="5.000000" fill="chocolate" stroke="gold" stroke-width="2" />
<circle cx="100.000000" cy="100.000000" r="50.000000" fill="yellow" stroke="black" stroke-width="2"/>
<circle cx="150.000000" cy="150.000000" r="30.000000" fill="blue" stroke="black" stroke-width="2"/><rect x="50.000000" y="50.000000" width="130.000000" height="130.000000" fill="transparent" stroke="purple" stroke-width="2" stroke-dasharray="3, 3"/>
<text x="50.000000" y="50.000000" fill="purple">SOBREPOE</text>
</svg>