<svg xmlns="http://www.w3.org/2000/svg" width="100000" height="100000">
<circle cx="909.000000" cy="331.000000" r="101.000000" fill="chocolate" stroke="steelblue" stroke-width="2"/>
<circle cx="950.000000" cy="673.000000" r="95.000000" fill="chocolate" stroke="green" stroke-width="2"/>
<circle cx="790.000000" cy="358.000000" r="96.000000" fill="darkred" stroke="gold" stroke-width="2"/>
<circle cx="239.000000" cy="156.000000" r="89.000000" fill="chocolate" stroke="green" stroke-width="2"/>
<circle cx="891.000000" cy="711.000000" r="104.000000" fill="lightyellow" stroke="green" stroke-width="2"/>
<circle cx="269.000000" cy="120.000000" r="112.000000" fill="dimgray" stroke="green" stroke-width="2"/>
<circle cx="371.000000" cy="615.000000" r="31.000000" fill="tomato" stroke="steelblue" stroke-width="2"/>
<circle cx="888.000000" cy="362.000000" r="81.000000" fill="dimgray" stroke="steelblue" stroke-width="2"/>
<circle cx="320.000000" cy="507.000000" r="108.000000" fill="dimgray" stroke="green" stroke-width="2"/>
<circle cx="1057.000000" cy="458.000000" r="39.000000" fill="dimgray" stroke="green" stroke-width="2"/>
<circle cx="261.000000" cy="229.000000" r="23.000000" fill="tomato" stroke="steelblue" stroke-width="2"/>
<circle cx="715.000000" cy="486.000000" r="84.000000" fill="dimgray" stroke="gold" stroke-width="2"/>
<circle cx="892.000000" cy="241.000000" r="17.000000" fill="dimgray" stroke="green" stroke-width="2"/>
<circle cx="507.000000" cy="159.000000" r="116.000000" fill="lightyellow" stroke="steelblue" stroke-width="2"/>
<circle cx="196.000000" cy="422.000000" r="95.000000" fill="lightyellow" stroke="gold" stroke-width="2"/>
<circle cx="225.000000" cy="735.000000" r="65.000000" fill="chocolate" stroke="gold" stroke-width="2"/>
<circle cx="525.000000" cy="323.000000" r="114.000000" fill="lightyellow" stroke="steelblue" stroke-width="2"/>
<circle cx="939.000000" cy="618.000000" r="57.000000" fill="tomato" stroke="steelblue" stroke-width="2"/>
<circle cx="509.000000" cy="262.000000" r="32.000000" fill="tomato" stroke="steelblue" stroke-width="2"/>
<circle cx="841.000000" cy="771.000000" r="31.000000" fill="chocolate" stroke="gold" stroke-width="2"/>
<circle cx="368.000000" cy="644.000000" r="76.000000" fill="darkred" stroke="green" stroke-width="2"/>
<circle cx="987.000000" cy="379.000000" r="48.000000" fill="darkred" stroke="steelblue" stroke-width="2"/>
<circle cx="792.000000" cy="766.000000" r="114.000000" fill="darkred" stroke="green" stroke-width="2"/>
<circle cx="420.000000" cy="653.000000" r="32.000000" fill="tomato" stroke="gold" stroke-width="2"/>
<circle cx="366.000000" cy="274.000000" r="54.000000" fill="darkred" stroke="green" stroke-width="2"/>
<circle cx="701.000000" cy="441.000000" r="8.000000" fill="lightyellow" stroke="steelblue" stroke-width="2"/>
<circle cx="964.000000" cy="362.000000" r="48.000000" fill="chocolate" stroke="green" stroke-width="2"/>
<circle cx="514.000000" cy="170.000000" r="108.000000" fill="lightyellow" stroke="gold" stroke-width="2"/>
<circle cx="167.000000" cy="628.000000" r="49.000000" fill="chocolate" stroke="gold" stroke-width="2"/>
<circle cx="230.000000" cy="676.000000" r="69.000000" fill="chocolate" stroke="gold" stroke-width="2"/>
<circle cx="412.000000" cy="628.000000" r="73.000000" fill="tomato" stroke="gold" stroke-width="2"/>
<circle cx="1043.000000" cy="671.000000" r="65.000000" fill="lightyellow" stroke="green" stroke-width="2"/>
<circle cx="318.000000" cy="212.000000" r="86.000000" fill="chocolate" stroke="steelblue" stroke-width="2"/>
<circle cx="819.000000" cy="322.000000" r="5.000000" fill="tomato" stroke="green" stroke-width="2"/>
<circle cx="462.000000" cy="367.000000" r="17.000000" fill="tomato" stroke="steelblue" stroke-width="2"/>
<circle cx="803.000000" cy="377.000000" r="82.000000" fill="lightyellow" stroke="steelblue" stroke-width="2"/>
<circle cx="125.000000" cy="306.000000" r="45.000000" fill="tomato" stroke="green" stroke-width="2"/>
<circle cx="797.000000" cy="459.000000" r="25.000000" fill="darkred" stroke="steelblue" stroke-width="2"/>
<circle cx="564.000000" cy="247.000000" r="116.000000" fill="darkred" stroke="gold" stroke-width="2"/>
<circle cx="281.000000" cy="451.000000" r="4.000000" fill="dimgray" stroke="green" stroke-width="2"/>
<circle cx="267.000000" cy="591.000000" r="37.000000" fill="lightyellow" stroke="green" stroke-width="2"/>
<circle cx="750.000000" cy="415.000000" r="58.000000" fill="chocolate" stroke="green" stroke-width="2"/>
<circle cx="578.000000" cy="492.000000" r="58.000000" fill="tomato" stroke="steelblue" stroke-width="2"/>
<circle cx="883.000000" cy="617.000000" r="30.000000" fill="tomato" stroke="gold" stroke-width="2"/>
<circle cx="241.000000" cy="520.000000" r="48.000000" fill="chocolate" stroke="green" stroke-width="2"/>
<circle cx="508.000000" cy="193.000000" r="45.000000" fill="tomato" stroke="green" stroke-width="2"/>
<circle cx="949.000000" cy="209.000000" r="3.000000" fill="tomato" stroke="green" stroke-width="2"/>
<circle cx="281.000000" cy="332.000000" r="48.000000" fill="chocolate" stroke="steelblue" stroke-width="2"/>
<circle cx="1014.000000" cy="343.000000" r="72.000000" fill="lightyellow" stroke="gold" stroke-width="2"/>
<circle cx="1014.000000" cy="366.000000" r="106.000000" fill="chocolate" stroke="gold" stroke-width="2"/>
</svg>