<svg xmlns="http://www.w3.org/2000/svg" width="100000" height="100000">
<circle cx="746.000000" cy="214.000000" r="8.000000" fill="lightyellow" stroke="steelblue" stroke-width="2"/>
<circle cx="385.000000" cy="228.000000" r="3.000000" fill="dimgray" stroke="green" stroke-width="2"/>
<circle cx="70.000000" cy="675.000000" r="6.000000" fill="darkred" stroke="gold" stroke-width="2"/>
<circle cx="606.000000" cy="197.000000" r="3.000000" fill="dimgray" stroke="steelblue" stroke-width="2"/>
<circle cx="63.000000" cy="571.000000" r="1.000000" fill="chocolate" stroke="steelblue" stroke-width="2"/>
<circle cx="865.000000" cy="703.000000" r="10.000000" fill="lightyellow" stroke="steelblue" stroke-width="2"/>
<circle cx="339.000000" cy="20.000000" r="4.000000" fill="tomato" stroke="green" stroke-width="2"/>
<circle cx="317.000000" cy="157.000000" r="11.000000" fill="darkred" stroke="gold" stroke-width="2"/>
<circle cx="38.000000" cy="835.000000" r="6.000000" fill="chocolate" stroke="gold" stroke-width="2"/>
<circle cx="1032.000000" cy="275.000000" r="9.000000" fill="dimgray" stroke="gold" stroke-width="2"/>
<circle cx="839.000000" cy="726.000000" r="5.000000" fill="tomato" stroke="steelblue" stroke-width="2"/>
<circle cx="536.000000" cy="306.000000" r="10.000000" fill="chocolate" stroke="steelblue" stroke-width="2"/>
<circle cx="824.000000" cy="271.000000" r="10.000000" fill="tomato" stroke="green" stroke-width="2"/>
<circle cx="992.000000" cy="518.000000" r="4.000000" fill="lightyellow" stroke="steelblue" stroke-width="2"/>
<circle cx="1177.000000" cy="36.000000" r="4.000000" fill="dimgray" stroke="gold" stroke-width="2"/>
<circle cx="678.000000" cy="824.000000" r="4.000000" fill="lightyellow" stroke="steelblue" stroke-width="2"/>
<circle cx="901.000000" cy="883.000000" r="10.000000" fill="lightyellow" stroke="green" stroke-width="2"/>
<circle cx="330.000000" cy="390.000000" r="9.000000" fill="dimgray" stroke="green" stroke-width="2"/>
<circle cx="717.000000" cy="421.000000" r="6.000000" fill="tomato" stroke="steelblue" stroke-width="2"/>
<circle cx="309.000000" cy="126.000000" r="11.000000" fill="lightyellow" stroke="steelblue" stroke-width="2"/>
<circle cx="237.000000" cy="828.000000" r="7.000000" fill="lightyellow" stroke="gold" stroke-width="2"/>
<circle cx="468.000000" cy="340.000000" r="10.000000" fill="dimgray" stroke="gold" stroke-width="2"/>
<circle cx="228.000000" cy="848.000000" r="4.000000" fill="tomato" stroke="green" stroke-width="2"/>
<circle cx="190.000000" cy="614.000000" r="7.000000" fill="dimgray" stroke="steelblue" stroke-width="2"/>
<circle cx="45.000000" cy="547.000000" r="6.000000" fill="darkred" stroke="green" stroke-width="2"/>
<circle cx="737.000000" cy="605.000000" r="5.000000" fill="tomato" stroke="gold" stroke-width="2"/>
<circle cx="296.000000" cy="428.000000" r="8.000000" fill="darkred" stroke="green" stroke-width="2"/>
<circle cx="909.000000" cy="683.000000" r="2.000000" fill="lightyellow" stroke="green" stroke-width="2"/>
<circle cx="1166.000000" cy="45.000000" r="11.000000" fill="lightyellow" stroke="green" stroke-width="2"/>
<circle cx="969.000000" cy="671.000000" r="10.000000" fill="dimgray" stroke="gold" stroke-width="2"/>
<circle cx="76.000000" cy="312.000000" r="5.000000" fill="chocolate" stroke="gold" stroke-width="2"/>
<circle cx="1018.000000" cy="742.000000" r="6.000000" fill="lightyellow" stroke="gold" stroke-width="2"/>
<circle cx="1186.000000" cy="232.000000" r="9.000000" fill="tomato" stroke="steelblue" stroke-width="2"/>
<circle cx="753.000000" cy="404.000000" r="6.000000" fill="dimgray" stroke="gold" stroke-width="2"/>
<circle cx="673.000000" cy="114.000000" r="8.000000" fill="darkred" stroke="steelblue" stroke-width="2"/>
<circle cx="1110.000000" cy="446.000000" r="2.000000" fill="lightyellow" stroke="green" stroke-width="2"/>
<circle cx="816.000000" cy="608.000000" r="12.000000" fill="chocolate" stroke="steelblue" stroke-width="2"/>
<circle cx="698.000000" cy="242.000000" r="8.000000" fill="chocolate" stroke="gold" stroke-width="2"/>
<circle cx="135.000000" cy="784.000000" r="9.000000" fill="tomato" stroke="green" stroke-width="2"/>
<circle cx="627.000000" cy="526.000000" r="5.000000" fill="tomato" stroke="green" stroke-width="2"/>
<circle cx="55.000000" cy="229.000000" r="4.000000" fill="lightyellow" stroke="steelblue" stroke-width="2"/>
<circle cx="1136.000000" cy="205.000000" r="4.000000" fill="lightyellow" stroke="steelblue" stroke-width="2"/>
<circle cx="60.000000" cy="78.000000" r="11.000000" fill="lightyellow" stroke="green" stroke-width="2"/>
<circle cx="737.000000" cy="183.000000" r="6.000000" fill="tomato" stroke="gold" stroke-width="2"/>
<circle cx="416.000000" cy="454.000000" r="2.000000" fill="tomato" stroke="steelblue" stroke-width="2"/>
<circle cx="623.000000" cy="685.000000" r="8.000000" fill="lightyellow" stroke="steelblue" stroke-width="2"/>
<circle cx="340.000000" cy="852.000000" r="1.000000" fill="lightyellow" stroke="gold" stroke-width="2"/>
<circle cx="400.000000" cy="824.000000" r="10.000000" fill="tomato" stroke="steelblue" stroke-width="2"/>
<circle cx="191.000000" cy="801.000000" r="11.000000" fill="lightyellow" stroke="steelblue" stroke-width="2"/>
<circle cx="136.000000" cy="269.000000" r="7.000000" fill="tomato" stroke="gold" stroke-width="2"/>
</svg>